STARTFONT 2.1
FONT -TakWolf-Fusion Pixel 10px Prop latin-Regular-R-Normal-Sans Serif-10-100-75-75-P-98-ISO10646-1
SIZE 10 75 75
FONTBOUNDINGBOX 10 14 0 -3
STARTPROPERTIES 24
FOUNDRY "TakWolf"
FAMILY_NAME "Fusion Pixel 10px Prop latin"
WEIGHT_NAME "Regular"
SLANT "R"
SETWIDTH_NAME "Normal"
ADD_STYLE_NAME "Sans Serif"
PIXEL_SIZE 10
POINT_SIZE 100
RESOLUTION_X 75
RESOLUTION_Y 75
SPACING "P"
AVERAGE_WIDTH 98
CHARSET_REGISTRY "ISO10646"
CHARSET_ENCODING "1"
DEFAULT_CHAR 65534
FONT_ASCENT 11
FONT_DESCENT 3
X_HEIGHT 5
CAP_HEIGHT 7
UNDERLINE_POSITION -1
UNDERLINE_THICKNESS 1
FONT_VERSION "2026.09.25"
COPYRIGHT "Copyright (c) 2022, TakWolf (https://takwolf.com)"
LICENSE "This Font Software is licensed under the SIL Open Font License, Version 1.1"
ENDPROPERTIES
CHARS 697
STARTCHAR u0020
ENCODING 32
SWIDTH 500 0
DWIDTH 5 0
BBX 0 0 0 0
BITMAP
ENDCHAR
STARTCHAR u0021
ENCODING 33
SWIDTH 400 0
DWIDTH 4 0
BBX 1 7 1 0
BITMAP
80
80
80
80
80
00
80
ENDCHAR
STARTCHAR u0022
ENCODING 34
SWIDTH 600 0
DWIDTH 6 0
BBX 3 2 1 5
BITMAP
A0
A0
ENDCHAR
STARTCHAR u0023
ENCODING 35
SWIDTH 600 0
DWIDTH 6 0
BBX 5 7 0 0
BITMAP
50
F8
50
50
50
F8
50
ENDCHAR
STARTCHAR u0024
ENCODING 36
SWIDTH 600 0
DWIDTH 6 0
BBX 5 9 0 -1
BITMAP
20
70
A8
A0
70
28
A8
70
20
ENDCHAR
STARTCHAR u0025
ENCODING 37
SWIDTH 800 0
DWIDTH 8 0
BBX 7 7 0 0
BITMAP
44
A8
48
10
24
2A
44
ENDCHAR
STARTCHAR u0026
ENCODING 38
SWIDTH 700 0
DWIDTH 7 0
BBX 6 7 0 0
BITMAP
20
50
50
64
94
88
74
ENDCHAR
STARTCHAR u0027
ENCODING 39
SWIDTH 400 0
DWIDTH 4 0
BBX 1 2 1 5
BITMAP
80
80
ENDCHAR
STARTCHAR u0028
ENCODING 40
SWIDTH 600 0
DWIDTH 6 0
BBX 3 9 1 -1
BITMAP
20
40
40
80
80
80
40
40
20
ENDCHAR
STARTCHAR u0029
ENCODING 41
SWIDTH 600 0
DWIDTH 6 0
BBX 3 9 1 -1
BITMAP
80
40
40
20
20
20
40
40
80
ENDCHAR
STARTCHAR u002A
ENCODING 42
SWIDTH 600 0
DWIDTH 6 0
BBX 5 5 0 0
BITMAP
20
A8
70
A8
20
ENDCHAR
STARTCHAR u002B
ENCODING 43
SWIDTH 600 0
DWIDTH 6 0
BBX 5 5 0 0
BITMAP
20
20
F8
20
20
ENDCHAR
STARTCHAR u002C
ENCODING 44
SWIDTH 400 0
DWIDTH 4 0
BBX 2 3 0 -2
BITMAP
40
40
80
ENDCHAR
STARTCHAR u002D
ENCODING 45
SWIDTH 600 0
DWIDTH 6 0
BBX 5 1 0 2
BITMAP
F8
ENDCHAR
STARTCHAR u002E
ENCODING 46
SWIDTH 400 0
DWIDTH 4 0
BBX 1 1 1 0
BITMAP
80
ENDCHAR
STARTCHAR u002F
ENCODING 47
SWIDTH 500 0
DWIDTH 5 0
BBX 4 9 0 -1
BITMAP
10
10
20
20
40
40
40
80
80
ENDCHAR
STARTCHAR u0030
ENCODING 48
SWIDTH 500 0
DWIDTH 5 0
BBX 4 7 0 0
BITMAP
60
90
B0
D0
90
90
60
ENDCHAR
STARTCHAR u0031
ENCODING 49
SWIDTH 500 0
DWIDTH 5 0
BBX 3 7 1 0
BITMAP
40
C0
40
40
40
40
E0
ENDCHAR
STARTCHAR u0032
ENCODING 50
SWIDTH 500 0
DWIDTH 5 0
BBX 4 7 0 0
BITMAP
60
90
10
20
40
80
F0
ENDCHAR
STARTCHAR u0033
ENCODING 51
SWIDTH 500 0
DWIDTH 5 0
BBX 4 7 0 0
BITMAP
60
90
10
20
10
90
60
ENDCHAR
STARTCHAR u0034
ENCODING 52
SWIDTH 500 0
DWIDTH 5 0
BBX 4 7 0 0
BITMAP
30
50
50
90
90
F0
10
ENDCHAR
STARTCHAR u0035
ENCODING 53
SWIDTH 500 0
DWIDTH 5 0
BBX 4 7 0 0
BITMAP
F0
80
80
E0
10
10
E0
ENDCHAR
STARTCHAR u0036
ENCODING 54
SWIDTH 500 0
DWIDTH 5 0
BBX 4 7 0 0
BITMAP
60
90
80
E0
90
90
60
ENDCHAR
STARTCHAR u0037
ENCODING 55
SWIDTH 500 0
DWIDTH 5 0
BBX 4 7 0 0
BITMAP
F0
10
10
20
20
40
40
ENDCHAR
STARTCHAR u0038
ENCODING 56
SWIDTH 500 0
DWIDTH 5 0
BBX 4 7 0 0
BITMAP
60
90
90
60
90
90
60
ENDCHAR
STARTCHAR u0039
ENCODING 57
SWIDTH 500 0
DWIDTH 5 0
BBX 4 7 0 0
BITMAP
60
90
90
70
10
90
60
ENDCHAR
STARTCHAR u003A
ENCODING 58
SWIDTH 400 0
DWIDTH 4 0
BBX 1 5 1 0
BITMAP
80
00
00
00
80
ENDCHAR
STARTCHAR u003B
ENCODING 59
SWIDTH 400 0
DWIDTH 4 0
BBX 2 7 0 -2
BITMAP
40
00
00
00
40
40
80
ENDCHAR
STARTCHAR u003C
ENCODING 60
SWIDTH 400 0
DWIDTH 4 0
BBX 3 5 0 0
BITMAP
20
40
80
40
20
ENDCHAR
STARTCHAR u003D
ENCODING 61
SWIDTH 600 0
DWIDTH 6 0
BBX 5 3 0 1
BITMAP
F8
00
F8
ENDCHAR
STARTCHAR u003E
ENCODING 62
SWIDTH 400 0
DWIDTH 4 0
BBX 3 5 0 0
BITMAP
80
40
20
40
80
ENDCHAR
STARTCHAR u003F
ENCODING 63
SWIDTH 600 0
DWIDTH 6 0
BBX 5 7 0 0
BITMAP
70
88
08
10
20
00
20
ENDCHAR
STARTCHAR u0040
ENCODING 64
SWIDTH 600 0
DWIDTH 6 0
BBX 5 8 0 -1
BITMAP
70
88
98
A8
A8
B8
80
70
ENDCHAR
STARTCHAR u0041
ENCODING 65
SWIDTH 600 0
DWIDTH 6 0
BBX 5 7 0 0
BITMAP
20
20
50
50
70
88
88
ENDCHAR
STARTCHAR u0042
ENCODING 66
SWIDTH 600 0
DWIDTH 6 0
BBX 5 7 0 0
BITMAP
F0
88
88
F0
88
88
F0
ENDCHAR
STARTCHAR u0043
ENCODING 67
SWIDTH 600 0
DWIDTH 6 0
BBX 5 7 0 0
BITMAP
70
88
80
80
80
88
70
ENDCHAR
STARTCHAR u0044
ENCODING 68
SWIDTH 600 0
DWIDTH 6 0
BBX 5 7 0 0
BITMAP
F0
88
88
88
88
88
F0
ENDCHAR
STARTCHAR u0045
ENCODING 69
SWIDTH 600 0
DWIDTH 6 0
BBX 5 7 0 0
BITMAP
F8
80
80
F0
80
80
F8
ENDCHAR
STARTCHAR u0046
ENCODING 70
SWIDTH 600 0
DWIDTH 6 0
BBX 5 7 0 0
BITMAP
F8
80
80
F0
80
80
80
ENDCHAR
STARTCHAR u0047
ENCODING 71
SWIDTH 600 0
DWIDTH 6 0
BBX 5 7 0 0
BITMAP
70
88
80
80
98
88
78
ENDCHAR
STARTCHAR u0048
ENCODING 72
SWIDTH 600 0
DWIDTH 6 0
BBX 5 7 0 0
BITMAP
88
88
88
F8
88
88
88
ENDCHAR
STARTCHAR u0049
ENCODING 73
SWIDTH 400 0
DWIDTH 4 0
BBX 3 7 0 0
BITMAP
E0
40
40
40
40
40
E0
ENDCHAR
STARTCHAR u004A
ENCODING 74
SWIDTH 500 0
DWIDTH 5 0
BBX 4 7 0 0
BITMAP
10
10
10
10
90
90
60
ENDCHAR
STARTCHAR u004B
ENCODING 75
SWIDTH 600 0
DWIDTH 6 0
BBX 5 7 0 0
BITMAP
88
90
A0
C0
A0
90
88
ENDCHAR
STARTCHAR u004C
ENCODING 76
SWIDTH 500 0
DWIDTH 5 0
BBX 4 7 0 0
BITMAP
80
80
80
80
80
80
F0
ENDCHAR
STARTCHAR u004D
ENCODING 77
SWIDTH 800 0
DWIDTH 8 0
BBX 7 7 0 0
BITMAP
82
C6
C6
AA
AA
92
92
ENDCHAR
STARTCHAR u004E
ENCODING 78
SWIDTH 600 0
DWIDTH 6 0
BBX 5 7 0 0
BITMAP
88
C8
C8
A8
98
98
88
ENDCHAR
STARTCHAR u004F
ENCODING 79
SWIDTH 600 0
DWIDTH 6 0
BBX 5 7 0 0
BITMAP
70
88
88
88
88
88
70
ENDCHAR
STARTCHAR u0050
ENCODING 80
SWIDTH 600 0
DWIDTH 6 0
BBX 5 7 0 0
BITMAP
F0
88
88
F0
80
80
80
ENDCHAR
STARTCHAR u0051
ENCODING 81
SWIDTH 600 0
DWIDTH 6 0
BBX 5 7 0 0
BITMAP
70
88
88
88
A8
90
68
ENDCHAR
STARTCHAR u0052
ENCODING 82
SWIDTH 600 0
DWIDTH 6 0
BBX 5 7 0 0
BITMAP
F0
88
88
F0
90
88
88
ENDCHAR
STARTCHAR u0053
ENCODING 83
SWIDTH 600 0
DWIDTH 6 0
BBX 5 7 0 0
BITMAP
70
88
80
70
08
88
70
ENDCHAR
STARTCHAR u0054
ENCODING 84
SWIDTH 600 0
DWIDTH 6 0
BBX 5 7 0 0
BITMAP
F8
20
20
20
20
20
20
ENDCHAR
STARTCHAR u0055
ENCODING 85
SWIDTH 600 0
DWIDTH 6 0
BBX 5 7 0 0
BITMAP
88
88
88
88
88
88
70
ENDCHAR
STARTCHAR u0056
ENCODING 86
SWIDTH 600 0
DWIDTH 6 0
BBX 5 7 0 0
BITMAP
88
88
50
50
50
20
20
ENDCHAR
STARTCHAR u0057
ENCODING 87
SWIDTH 800 0
DWIDTH 8 0
BBX 7 7 0 0
BITMAP
92
92
92
AA
AA
44
44
ENDCHAR
STARTCHAR u0058
ENCODING 88
SWIDTH 600 0
DWIDTH 6 0
BBX 5 7 0 0
BITMAP
88
88
50
20
50
88
88
ENDCHAR
STARTCHAR u0059
ENCODING 89
SWIDTH 600 0
DWIDTH 6 0
BBX 5 7 0 0
BITMAP
88
88
50
50
20
20
20
ENDCHAR
STARTCHAR u005A
ENCODING 90
SWIDTH 600 0
DWIDTH 6 0
BBX 5 7 0 0
BITMAP
F8
08
10
20
40
80
F8
ENDCHAR
STARTCHAR u005B
ENCODING 91
SWIDTH 600 0
DWIDTH 6 0
BBX 3 9 1 -1
BITMAP
E0
80
80
80
80
80
80
80
E0
ENDCHAR
STARTCHAR u005C
ENCODING 92
SWIDTH 500 0
DWIDTH 5 0
BBX 4 9 0 -1
BITMAP
80
80
40
40
20
20
20
10
10
ENDCHAR
STARTCHAR u005D
ENCODING 93
SWIDTH 600 0
DWIDTH 6 0
BBX 3 9 1 -1
BITMAP
E0
20
20
20
20
20
20
20
E0
ENDCHAR
STARTCHAR u005E
ENCODING 94
SWIDTH 400 0
DWIDTH 4 0
BBX 3 2 0 5
BITMAP
40
A0
ENDCHAR
STARTCHAR u005F
ENCODING 95
SWIDTH 500 0
DWIDTH 5 0
BBX 4 1 0 -2
BITMAP
F0
ENDCHAR
STARTCHAR u0060
ENCODING 96
SWIDTH 500 0
DWIDTH 5 0
BBX 2 2 1 5
BITMAP
80
40
ENDCHAR
STARTCHAR u0061
ENCODING 97
SWIDTH 500 0
DWIDTH 5 0
BBX 4 5 0 0
BITMAP
60
10
70
90
70
ENDCHAR
STARTCHAR u0062
ENCODING 98
SWIDTH 500 0
DWIDTH 5 0
BBX 4 7 0 0
BITMAP
80
80
E0
90
90
90
E0
ENDCHAR
STARTCHAR u0063
ENCODING 99
SWIDTH 500 0
DWIDTH 5 0
BBX 4 5 0 0
BITMAP
60
90
80
90
60
ENDCHAR
STARTCHAR u0064
ENCODING 100
SWIDTH 500 0
DWIDTH 5 0
BBX 4 7 0 0
BITMAP
10
10
70
90
90
90
70
ENDCHAR
STARTCHAR u0065
ENCODING 101
SWIDTH 500 0
DWIDTH 5 0
BBX 4 5 0 0
BITMAP
60
90
F0
80
60
ENDCHAR
STARTCHAR u0066
ENCODING 102
SWIDTH 500 0
DWIDTH 5 0
BBX 4 7 0 0
BITMAP
30
40
F0
40
40
40
40
ENDCHAR
STARTCHAR u0067
ENCODING 103
SWIDTH 500 0
DWIDTH 5 0
BBX 4 7 0 -2
BITMAP
70
90
90
90
70
10
60
ENDCHAR
STARTCHAR u0068
ENCODING 104
SWIDTH 500 0
DWIDTH 5 0
BBX 4 7 0 0
BITMAP
80
80
E0
90
90
90
90
ENDCHAR
STARTCHAR u0069
ENCODING 105
SWIDTH 400 0
DWIDTH 4 0
BBX 3 7 0 0
BITMAP
40
00
C0
40
40
40
E0
ENDCHAR
STARTCHAR u006A
ENCODING 106
SWIDTH 400 0
DWIDTH 4 0
BBX 3 9 0 -2
BITMAP
20
00
E0
20
20
20
20
20
C0
ENDCHAR
STARTCHAR u006B
ENCODING 107
SWIDTH 500 0
DWIDTH 5 0
BBX 4 7 0 0
BITMAP
80
80
90
A0
C0
A0
90
ENDCHAR
STARTCHAR u006C
ENCODING 108
SWIDTH 400 0
DWIDTH 4 0
BBX 3 7 0 0
BITMAP
C0
40
40
40
40
40
60
ENDCHAR
STARTCHAR u006D
ENCODING 109
SWIDTH 600 0
DWIDTH 6 0
BBX 5 5 0 0
BITMAP
D0
A8
A8
A8
A8
ENDCHAR
STARTCHAR u006E
ENCODING 110
SWIDTH 500 0
DWIDTH 5 0
BBX 4 5 0 0
BITMAP
E0
90
90
90
90
ENDCHAR
STARTCHAR u006F
ENCODING 111
SWIDTH 500 0
DWIDTH 5 0
BBX 4 5 0 0
BITMAP
60
90
90
90
60
ENDCHAR
STARTCHAR u0070
ENCODING 112
SWIDTH 500 0
DWIDTH 5 0
BBX 4 7 0 -2
BITMAP
E0
90
90
90
E0
80
80
ENDCHAR
STARTCHAR u0071
ENCODING 113
SWIDTH 500 0
DWIDTH 5 0
BBX 4 7 0 -2
BITMAP
70
90
90
90
70
10
10
ENDCHAR
STARTCHAR u0072
ENCODING 114
SWIDTH 400 0
DWIDTH 4 0
BBX 3 5 0 0
BITMAP
A0
C0
80
80
80
ENDCHAR
STARTCHAR u0073
ENCODING 115
SWIDTH 500 0
DWIDTH 5 0
BBX 4 5 0 0
BITMAP
70
80
60
10
E0
ENDCHAR
STARTCHAR u0074
ENCODING 116
SWIDTH 500 0
DWIDTH 5 0
BBX 4 7 0 0
BITMAP
40
40
F0
40
40
40
30
ENDCHAR
STARTCHAR u0075
ENCODING 117
SWIDTH 500 0
DWIDTH 5 0
BBX 4 5 0 0
BITMAP
90
90
90
90
70
ENDCHAR
STARTCHAR u0076
ENCODING 118
SWIDTH 600 0
DWIDTH 6 0
BBX 5 5 0 0
BITMAP
88
88
50
50
20
ENDCHAR
STARTCHAR u0077
ENCODING 119
SWIDTH 600 0
DWIDTH 6 0
BBX 5 5 0 0
BITMAP
A8
A8
A8
50
50
ENDCHAR
STARTCHAR u0078
ENCODING 120
SWIDTH 600 0
DWIDTH 6 0
BBX 5 5 0 0
BITMAP
88
50
20
50
88
ENDCHAR
STARTCHAR u0079
ENCODING 121
SWIDTH 600 0
DWIDTH 6 0
BBX 5 7 0 -2
BITMAP
88
88
50
50
20
20
C0
ENDCHAR
STARTCHAR u007A
ENCODING 122
SWIDTH 500 0
DWIDTH 5 0
BBX 4 5 0 0
BITMAP
F0
20
40
80
F0
ENDCHAR
STARTCHAR u007B
ENCODING 123
SWIDTH 700 0
DWIDTH 7 0
BBX 4 9 1 -1
BITMAP
30
40
40
40
80
40
40
40
30
ENDCHAR
STARTCHAR u007C
ENCODING 124
SWIDTH 400 0
DWIDTH 4 0
BBX 1 9 1 -1
BITMAP
80
80
80
80
80
80
80
80
80
ENDCHAR
STARTCHAR u007D
ENCODING 125
SWIDTH 700 0
DWIDTH 7 0
BBX 4 9 1 -1
BITMAP
C0
20
20
20
10
20
20
20
C0
ENDCHAR
STARTCHAR u007E
ENCODING 126
SWIDTH 600 0
DWIDTH 6 0
BBX 5 3 0 2
BITMAP
40
A8
10
ENDCHAR
STARTCHAR u0020
ENCODING 160
SWIDTH 500 0
DWIDTH 5 0
BBX 0 0 0 0
BITMAP
ENDCHAR
STARTCHAR u00A1
ENCODING 161
SWIDTH 400 0
DWIDTH 4 0
BBX 1 7 1 -2
BITMAP
80
00
80
80
80
80
80
ENDCHAR
STARTCHAR u00A2
ENCODING 162
SWIDTH 600 0
DWIDTH 6 0
BBX 5 7 0 -1
BITMAP
20
70
A8
A0
A8
70
20
ENDCHAR
STARTCHAR u00A3
ENCODING 163
SWIDTH 600 0
DWIDTH 6 0
BBX 5 7 0 0
BITMAP
30
48
40
F0
40
80
F8
ENDCHAR
STARTCHAR u00A4
ENCODING 164
SWIDTH 600 0
DWIDTH 6 0
BBX 5 5 0 1
BITMAP
88
70
50
70
88
ENDCHAR
STARTCHAR u00A5
ENCODING 165
SWIDTH 600 0
DWIDTH 6 0
BBX 5 7 0 0
BITMAP
88
88
50
F8
20
F8
20
ENDCHAR
STARTCHAR u00A6
ENCODING 166
SWIDTH 400 0
DWIDTH 4 0
BBX 1 9 1 -1
BITMAP
80
80
80
80
00
80
80
80
80
ENDCHAR
STARTCHAR u00A7
ENCODING 167
SWIDTH 500 0
DWIDTH 5 0
BBX 4 9 0 -2
BITMAP
60
90
80
60
90
60
10
90
60
ENDCHAR
STARTCHAR u00A8
ENCODING 168
SWIDTH 600 0
DWIDTH 6 0
BBX 3 1 1 6
BITMAP
A0
ENDCHAR
STARTCHAR u00A9
ENCODING 169
SWIDTH 1000 0
DWIDTH 10 0
BBX 9 9 0 -1
BITMAP
3E00
4100
9C80
A280
A080
A280
9C80
4100
3E00
ENDCHAR
STARTCHAR u00AA
ENCODING 170
SWIDTH 500 0
DWIDTH 5 0
BBX 4 4 0 3
BITMAP
70
90
90
70
ENDCHAR
STARTCHAR u00AB
ENCODING 171
SWIDTH 700 0
DWIDTH 7 0
BBX 6 5 0 0
BITMAP
24
48
90
48
24
ENDCHAR
STARTCHAR u00AC
ENCODING 172
SWIDTH 600 0
DWIDTH 6 0
BBX 5 3 0 2
BITMAP
F8
08
08
ENDCHAR
STARTCHAR u00AE
ENCODING 174
SWIDTH 1000 0
DWIDTH 10 0
BBX 8 8 0 0
BITMAP
3C
42
B9
A5
B9
A5
42
3C
ENDCHAR
STARTCHAR u00AF
ENCODING 175
SWIDTH 500 0
DWIDTH 5 0
BBX 4 1 0 6
BITMAP
F0
ENDCHAR
STARTCHAR u00B0
ENCODING 176
SWIDTH 400 0
DWIDTH 4 0
BBX 3 3 0 5
BITMAP
40
A0
40
ENDCHAR
STARTCHAR u00B1
ENCODING 177
SWIDTH 600 0
DWIDTH 6 0
BBX 5 5 0 0
BITMAP
20
20
F8
20
F8
ENDCHAR
STARTCHAR u00B2
ENCODING 178
SWIDTH 400 0
DWIDTH 4 0
BBX 3 5 0 3
BITMAP
C0
20
40
80
E0
ENDCHAR
STARTCHAR u00B3
ENCODING 179
SWIDTH 400 0
DWIDTH 4 0
BBX 3 5 0 3
BITMAP
C0
20
40
20
C0
ENDCHAR
STARTCHAR u00B4
ENCODING 180
SWIDTH 500 0
DWIDTH 5 0
BBX 2 2 1 5
BITMAP
40
80
ENDCHAR
STARTCHAR u00B5
ENCODING 181
SWIDTH 500 0
DWIDTH 5 0
BBX 4 7 0 -2
BITMAP
90
90
90
B0
D0
80
80
ENDCHAR
STARTCHAR u00B6
ENCODING 182
SWIDTH 600 0
DWIDTH 6 0
BBX 5 9 0 -2
BITMAP
38
68
E8
E8
68
28
28
28
28
ENDCHAR
STARTCHAR u00B7
ENCODING 183
SWIDTH 400 0
DWIDTH 4 0
BBX 1 1 1 3
BITMAP
80
ENDCHAR
STARTCHAR u00B8
ENCODING 184
SWIDTH 500 0
DWIDTH 5 0
BBX 3 3 1 -2
BITMAP
40
20
C0
ENDCHAR
STARTCHAR u00B9
ENCODING 185
SWIDTH 400 0
DWIDTH 4 0
BBX 3 5 0 3
BITMAP
40
C0
40
40
E0
ENDCHAR
STARTCHAR u00BA
ENCODING 186
SWIDTH 500 0
DWIDTH 5 0
BBX 4 4 0 3
BITMAP
60
90
90
60
ENDCHAR
STARTCHAR u00BB
ENCODING 187
SWIDTH 700 0
DWIDTH 7 0
BBX 6 5 0 0
BITMAP
90
48
24
48
90
ENDCHAR
STARTCHAR u00BC
ENCODING 188
SWIDTH 1000 0
DWIDTH 10 0
BBX 9 9 0 -1
BITMAP
4080
C100
4200
4400
E980
1280
2280
4380
8080
ENDCHAR
STARTCHAR u00BD
ENCODING 189
SWIDTH 1000 0
DWIDTH 10 0
BBX 9 9 0 -1
BITMAP
4080
C100
4200
4400
EB00
1080
2100
4200
8380
ENDCHAR
STARTCHAR u00BE
ENCODING 190
SWIDTH 1000 0
DWIDTH 10 0
BBX 9 9 0 -1
BITMAP
C080
2100
4200
2400
C980
1280
2280
4380
8080
ENDCHAR
STARTCHAR u00BF
ENCODING 191
SWIDTH 600 0
DWIDTH 6 0
BBX 5 7 0 -2
BITMAP
20
00
20
40
80
88
70
ENDCHAR
STARTCHAR u00C0
ENCODING 192
SWIDTH 600 0
DWIDTH 6 0
BBX 5 10 0 0
BITMAP
40
20
00
20
20
50
50
70
88
88
ENDCHAR
STARTCHAR u00C1
ENCODING 193
SWIDTH 600 0
DWIDTH 6 0
BBX 5 10 0 0
BITMAP
10
20
00
20
20
50
50
70
88
88
ENDCHAR
STARTCHAR u00C2
ENCODING 194
SWIDTH 600 0
DWIDTH 6 0
BBX 5 10 0 0
BITMAP
20
50
00
20
20
50
50
70
88
88
ENDCHAR
STARTCHAR u00C3
ENCODING 195
SWIDTH 600 0
DWIDTH 6 0
BBX 5 10 0 0
BITMAP
68
90
00
20
20
50
50
70
88
88
ENDCHAR
STARTCHAR u00C4
ENCODING 196
SWIDTH 600 0
DWIDTH 6 0
BBX 5 9 0 0
BITMAP
50
00
20
20
50
50
70
88
88
ENDCHAR
STARTCHAR u00C5
ENCODING 197
SWIDTH 600 0
DWIDTH 6 0
BBX 5 11 0 0
BITMAP
20
50
20
00
20
20
50
50
70
88
88
ENDCHAR
STARTCHAR u00C6
ENCODING 198
SWIDTH 800 0
DWIDTH 8 0
BBX 7 7 0 0
BITMAP
3E
30
50
5C
70
90
9E
ENDCHAR
STARTCHAR u00C7
ENCODING 199
SWIDTH 600 0
DWIDTH 6 0
BBX 5 9 0 -2
BITMAP
70
88
80
80
80
88
70
20
40
ENDCHAR
STARTCHAR u00C8
ENCODING 200
SWIDTH 600 0
DWIDTH 6 0
BBX 5 10 0 0
BITMAP
40
20
00
F8
80
80
F0
80
80
F8
ENDCHAR
STARTCHAR u00C9
ENCODING 201
SWIDTH 600 0
DWIDTH 6 0
BBX 5 10 0 0
BITMAP
10
20
00
F8
80
80
F0
80
80
F8
ENDCHAR
STARTCHAR u00CA
ENCODING 202
SWIDTH 600 0
DWIDTH 6 0
BBX 5 10 0 0
BITMAP
20
50
00
F8
80
80
F0
80
80
F8
ENDCHAR
STARTCHAR u00CB
ENCODING 203
SWIDTH 600 0
DWIDTH 6 0
BBX 5 9 0 0
BITMAP
50
00
F8
80
80
F0
80
80
F8
ENDCHAR
STARTCHAR u00CC
ENCODING 204
SWIDTH 400 0
DWIDTH 4 0
BBX 3 10 0 0
BITMAP
80
40
00
E0
40
40
40
40
40
E0
ENDCHAR
STARTCHAR u00CD
ENCODING 205
SWIDTH 400 0
DWIDTH 4 0
BBX 3 10 0 0
BITMAP
20
40
00
E0
40
40
40
40
40
E0
ENDCHAR
STARTCHAR u00CE
ENCODING 206
SWIDTH 400 0
DWIDTH 4 0
BBX 3 10 0 0
BITMAP
40
A0
00
E0
40
40
40
40
40
E0
ENDCHAR
STARTCHAR u00CF
ENCODING 207
SWIDTH 400 0
DWIDTH 4 0
BBX 3 9 0 0
BITMAP
A0
00
E0
40
40
40
40
40
E0
ENDCHAR
STARTCHAR u00D0
ENCODING 208
SWIDTH 700 0
DWIDTH 7 0
BBX 6 7 0 0
BITMAP
78
44
44
F4
44
44
78
ENDCHAR
STARTCHAR u00D1
ENCODING 209
SWIDTH 600 0
DWIDTH 6 0
BBX 5 10 0 0
BITMAP
68
90
00
88
C8
C8
A8
98
98
88
ENDCHAR
STARTCHAR u00D2
ENCODING 210
SWIDTH 600 0
DWIDTH 6 0
BBX 5 10 0 0
BITMAP
40
20
00
70
88
88
88
88
88
70
ENDCHAR
STARTCHAR u00D3
ENCODING 211
SWIDTH 600 0
DWIDTH 6 0
BBX 5 10 0 0
BITMAP
10
20
00
70
88
88
88
88
88
70
ENDCHAR
STARTCHAR u00D4
ENCODING 212
SWIDTH 600 0
DWIDTH 6 0
BBX 5 10 0 0
BITMAP
20
50
00
70
88
88
88
88
88
70
ENDCHAR
STARTCHAR u00D5
ENCODING 213
SWIDTH 600 0
DWIDTH 6 0
BBX 5 10 0 0
BITMAP
68
90
00
70
88
88
88
88
88
70
ENDCHAR
STARTCHAR u00D6
ENCODING 214
SWIDTH 600 0
DWIDTH 6 0
BBX 5 9 0 0
BITMAP
50
00
70
88
88
88
88
88
70
ENDCHAR
STARTCHAR u00D7
ENCODING 215
SWIDTH 600 0
DWIDTH 6 0
BBX 5 5 0 0
BITMAP
88
50
20
50
88
ENDCHAR
STARTCHAR u00D8
ENCODING 216
SWIDTH 600 0
DWIDTH 6 0
BBX 5 9 0 -1
BITMAP
08
70
98
A8
A8
A8
C8
70
80
ENDCHAR
STARTCHAR u00D9
ENCODING 217
SWIDTH 600 0
DWIDTH 6 0
BBX 5 10 0 0
BITMAP
40
20
00
88
88
88
88
88
88
70
ENDCHAR
STARTCHAR u00DA
ENCODING 218
SWIDTH 600 0
DWIDTH 6 0
BBX 5 10 0 0
BITMAP
10
20
00
88
88
88
88
88
88
70
ENDCHAR
STARTCHAR u00DB
ENCODING 219
SWIDTH 600 0
DWIDTH 6 0
BBX 5 10 0 0
BITMAP
20
50
00
88
88
88
88
88
88
70
ENDCHAR
STARTCHAR u00DC
ENCODING 220
SWIDTH 600 0
DWIDTH 6 0
BBX 5 9 0 0
BITMAP
50
00
88
88
88
88
88
88
70
ENDCHAR
STARTCHAR u00DD
ENCODING 221
SWIDTH 600 0
DWIDTH 6 0
BBX 5 10 0 0
BITMAP
10
20
00
88
88
50
50
20
20
20
ENDCHAR
STARTCHAR u00DE
ENCODING 222
SWIDTH 600 0
DWIDTH 6 0
BBX 5 7 0 0
BITMAP
80
F0
88
88
88
F0
80
ENDCHAR
STARTCHAR u00DF
ENCODING 223
SWIDTH 500 0
DWIDTH 5 0
BBX 4 7 0 0
BITMAP
60
90
90
A0
90
90
A0
ENDCHAR
STARTCHAR u00E0
ENCODING 224
SWIDTH 500 0
DWIDTH 5 0
BBX 4 8 0 0
BITMAP
40
20
00
60
10
70
90
70
ENDCHAR
STARTCHAR u00E1
ENCODING 225
SWIDTH 500 0
DWIDTH 5 0
BBX 4 8 0 0
BITMAP
20
40
00
60
10
70
90
70
ENDCHAR
STARTCHAR u00E2
ENCODING 226
SWIDTH 500 0
DWIDTH 5 0
BBX 4 8 0 0
BITMAP
20
50
00
60
10
70
90
70
ENDCHAR
STARTCHAR u00E3
ENCODING 227
SWIDTH 500 0
DWIDTH 5 0
BBX 5 8 0 0
BITMAP
68
90
00
60
10
70
90
70
ENDCHAR
STARTCHAR u00E4
ENCODING 228
SWIDTH 500 0
DWIDTH 5 0
BBX 4 7 0 0
BITMAP
50
00
60
10
70
90
70
ENDCHAR
STARTCHAR u00E5
ENCODING 229
SWIDTH 500 0
DWIDTH 5 0
BBX 4 9 0 0
BITMAP
20
50
20
00
60
10
70
90
70
ENDCHAR
STARTCHAR u00E6
ENCODING 230
SWIDTH 800 0
DWIDTH 8 0
BBX 7 5 0 0
BITMAP
6C
12
7E
90
6C
ENDCHAR
STARTCHAR u00E7
ENCODING 231
SWIDTH 500 0
DWIDTH 5 0
BBX 4 7 0 -2
BITMAP
60
90
80
90
60
20
40
ENDCHAR
STARTCHAR u00E8
ENCODING 232
SWIDTH 500 0
DWIDTH 5 0
BBX 4 8 0 0
BITMAP
40
20
00
60
90
F0
80
60
ENDCHAR
STARTCHAR u00E9
ENCODING 233
SWIDTH 500 0
DWIDTH 5 0
BBX 4 8 0 0
BITMAP
20
40
00
60
90
F0
80
60
ENDCHAR
STARTCHAR u00EA
ENCODING 234
SWIDTH 500 0
DWIDTH 5 0
BBX 4 8 0 0
BITMAP
20
50
00
60
90
F0
80
60
ENDCHAR
STARTCHAR u00EB
ENCODING 235
SWIDTH 500 0
DWIDTH 5 0
BBX 4 7 0 0
BITMAP
50
00
60
90
F0
80
60
ENDCHAR
STARTCHAR u00EC
ENCODING 236
SWIDTH 400 0
DWIDTH 4 0
BBX 3 8 0 0
BITMAP
80
40
00
C0
40
40
40
E0
ENDCHAR
STARTCHAR u00ED
ENCODING 237
SWIDTH 400 0
DWIDTH 4 0
BBX 3 8 0 0
BITMAP
20
40
00
C0
40
40
40
E0
ENDCHAR
STARTCHAR u00EE
ENCODING 238
SWIDTH 400 0
DWIDTH 4 0
BBX 3 8 0 0
BITMAP
40
A0
00
C0
40
40
40
E0
ENDCHAR
STARTCHAR u00EF
ENCODING 239
SWIDTH 400 0
DWIDTH 4 0
BBX 3 7 0 0
BITMAP
A0
00
C0
40
40
40
E0
ENDCHAR
STARTCHAR u00F0
ENCODING 240
SWIDTH 500 0
DWIDTH 5 0
BBX 4 8 0 0
BITMAP
40
30
E0
10
70
90
90
60
ENDCHAR
STARTCHAR u00F1
ENCODING 241
SWIDTH 500 0
DWIDTH 5 0
BBX 5 8 0 0
BITMAP
68
90
00
E0
90
90
90
90
ENDCHAR
STARTCHAR u00F2
ENCODING 242
SWIDTH 500 0
DWIDTH 5 0
BBX 4 8 0 0
BITMAP
40
20
00
60
90
90
90
60
ENDCHAR
STARTCHAR u00F3
ENCODING 243
SWIDTH 500 0
DWIDTH 5 0
BBX 4 8 0 0
BITMAP
20
40
00
60
90
90
90
60
ENDCHAR
STARTCHAR u00F4
ENCODING 244
SWIDTH 500 0
DWIDTH 5 0
BBX 4 8 0 0
BITMAP
20
50
00
60
90
90
90
60
ENDCHAR
STARTCHAR u00F5
ENCODING 245
SWIDTH 500 0
DWIDTH 5 0
BBX 5 8 0 0
BITMAP
68
90
00
60
90
90
90
60
ENDCHAR
STARTCHAR u00F6
ENCODING 246
SWIDTH 500 0
DWIDTH 5 0
BBX 4 7 0 0
BITMAP
50
00
60
90
90
90
60
ENDCHAR
STARTCHAR u00F7
ENCODING 247
SWIDTH 600 0
DWIDTH 6 0
BBX 5 5 0 0
BITMAP
20
00
F8
00
20
ENDCHAR
STARTCHAR u00F8
ENCODING 248
SWIDTH 500 0
DWIDTH 5 0
BBX 4 7 0 -1
BITMAP
10
60
90
F0
90
60
80
ENDCHAR
STARTCHAR u00F9
ENCODING 249
SWIDTH 500 0
DWIDTH 5 0
BBX 4 8 0 0
BITMAP
40
20
00
90
90
90
90
70
ENDCHAR
STARTCHAR u00FA
ENCODING 250
SWIDTH 500 0
DWIDTH 5 0
BBX 4 8 0 0
BITMAP
20
40
00
90
90
90
90
70
ENDCHAR
STARTCHAR u00FB
ENCODING 251
SWIDTH 500 0
DWIDTH 5 0
BBX 4 8 0 0
BITMAP
20
50
00
90
90
90
90
70
ENDCHAR
STARTCHAR u00FC
ENCODING 252
SWIDTH 500 0
DWIDTH 5 0
BBX 4 7 0 0
BITMAP
50
00
90
90
90
90
70
ENDCHAR
STARTCHAR u00FD
ENCODING 253
SWIDTH 600 0
DWIDTH 6 0
BBX 5 10 0 -2
BITMAP
10
20
00
88
88
50
50
20
20
C0
ENDCHAR
STARTCHAR u00FE
ENCODING 254
SWIDTH 500 0
DWIDTH 5 0
BBX 4 9 0 -2
BITMAP
80
80
E0
90
90
90
E0
80
80
ENDCHAR
STARTCHAR u00FF
ENCODING 255
SWIDTH 600 0
DWIDTH 6 0
BBX 5 9 0 -2
BITMAP
50
00
88
88
50
50
20
20
C0
ENDCHAR
STARTCHAR u0100
ENCODING 256
SWIDTH 600 0
DWIDTH 6 0
BBX 5 9 0 0
BITMAP
70
00
20
20
50
50
70
88
88
ENDCHAR
STARTCHAR u0101
ENCODING 257
SWIDTH 500 0
DWIDTH 5 0
BBX 4 7 0 0
BITMAP
70
00
60
10
70
90
70
ENDCHAR
STARTCHAR u0102
ENCODING 258
SWIDTH 600 0
DWIDTH 6 0
BBX 5 10 0 0
BITMAP
88
70
00
20
20
50
50
70
88
88
ENDCHAR
STARTCHAR u0103
ENCODING 259
SWIDTH 500 0
DWIDTH 5 0
BBX 4 8 0 0
BITMAP
90
60
00
60
10
70
90
70
ENDCHAR
STARTCHAR u0104
ENCODING 260
SWIDTH 600 0
DWIDTH 6 0
BBX 5 9 0 -2
BITMAP
20
20
50
50
70
88
88
10
08
ENDCHAR
STARTCHAR u0105
ENCODING 261
SWIDTH 500 0
DWIDTH 5 0
BBX 4 7 0 -2
BITMAP
60
10
70
90
70
20
10
ENDCHAR
STARTCHAR u0106
ENCODING 262
SWIDTH 600 0
DWIDTH 6 0
BBX 5 10 0 0
BITMAP
10
20
00
70
88
80
80
80
88
70
ENDCHAR
STARTCHAR u0107
ENCODING 263
SWIDTH 500 0
DWIDTH 5 0
BBX 4 8 0 0
BITMAP
20
40
00
60
90
80
90
60
ENDCHAR
STARTCHAR u0108
ENCODING 264
SWIDTH 600 0
DWIDTH 6 0
BBX 5 10 0 0
BITMAP
20
50
00
70
88
80
80
80
88
70
ENDCHAR
STARTCHAR u0109
ENCODING 265
SWIDTH 500 0
DWIDTH 5 0
BBX 4 8 0 0
BITMAP
20
50
00
60
90
80
90
60
ENDCHAR
STARTCHAR u010A
ENCODING 266
SWIDTH 600 0
DWIDTH 6 0
BBX 5 9 0 0
BITMAP
20
00
70
88
80
80
80
88
70
ENDCHAR
STARTCHAR u010B
ENCODING 267
SWIDTH 500 0
DWIDTH 5 0
BBX 4 7 0 0
BITMAP
20
00
60
90
80
90
60
ENDCHAR
STARTCHAR u010C
ENCODING 268
SWIDTH 600 0
DWIDTH 6 0
BBX 5 10 0 0
BITMAP
50
20
00
70
88
80
80
80
88
70
ENDCHAR
STARTCHAR u010D
ENCODING 269
SWIDTH 500 0
DWIDTH 5 0
BBX 4 8 0 0
BITMAP
50
20
00
60
90
80
90
60
ENDCHAR
STARTCHAR u010E
ENCODING 270
SWIDTH 600 0
DWIDTH 6 0
BBX 5 10 0 0
BITMAP
50
20
00
F0
88
88
88
88
88
F0
ENDCHAR
STARTCHAR u010F
ENCODING 271
SWIDTH 700 0
DWIDTH 7 0
BBX 6 7 0 0
BITMAP
14
14
70
90
90
90
70
ENDCHAR
STARTCHAR u0110
ENCODING 272
SWIDTH 700 0
DWIDTH 7 0
BBX 6 7 0 0
BITMAP
78
44
44
F4
44
44
78
ENDCHAR
STARTCHAR u0111
ENCODING 273
SWIDTH 600 0
DWIDTH 6 0
BBX 5 7 0 0
BITMAP
10
38
10
70
90
90
70
ENDCHAR
STARTCHAR u0112
ENCODING 274
SWIDTH 600 0
DWIDTH 6 0
BBX 5 9 0 0
BITMAP
70
00
F8
80
80
F0
80
80
F8
ENDCHAR
STARTCHAR u0113
ENCODING 275
SWIDTH 500 0
DWIDTH 5 0
BBX 4 7 0 0
BITMAP
70
00
60
90
F0
80
60
ENDCHAR
STARTCHAR u0114
ENCODING 276
SWIDTH 600 0
DWIDTH 6 0
BBX 5 10 0 0
BITMAP
88
70
00
F8
80
80
F0
80
80
F8
ENDCHAR
STARTCHAR u0115
ENCODING 277
SWIDTH 500 0
DWIDTH 5 0
BBX 4 8 0 0
BITMAP
90
60
00
60
90
F0
80
60
ENDCHAR
STARTCHAR u0116
ENCODING 278
SWIDTH 600 0
DWIDTH 6 0
BBX 5 9 0 0
BITMAP
20
00
F8
80
80
F0
80
80
F8
ENDCHAR
STARTCHAR u0117
ENCODING 279
SWIDTH 500 0
DWIDTH 5 0
BBX 4 7 0 0
BITMAP
20
00
60
90
F0
80
60
ENDCHAR
STARTCHAR u0118
ENCODING 280
SWIDTH 600 0
DWIDTH 6 0
BBX 5 9 0 -2
BITMAP
F8
80
80
F0
80
80
F8
10
08
ENDCHAR
STARTCHAR u0119
ENCODING 281
SWIDTH 500 0
DWIDTH 5 0
BBX 4 7 0 -2
BITMAP
60
90
F0
80
70
20
10
ENDCHAR
STARTCHAR u011A
ENCODING 282
SWIDTH 600 0
DWIDTH 6 0
BBX 5 10 0 0
BITMAP
50
20
00
F8
80
80
F0
80
80
F8
ENDCHAR
STARTCHAR u011B
ENCODING 283
SWIDTH 500 0
DWIDTH 5 0
BBX 4 8 0 0
BITMAP
50
20
00
60
90
F0
80
60
ENDCHAR
STARTCHAR u011C
ENCODING 284
SWIDTH 600 0
DWIDTH 6 0
BBX 5 10 0 0
BITMAP
20
50
00
70
88
80
80
98
88
78
ENDCHAR
STARTCHAR u011D
ENCODING 285
SWIDTH 500 0
DWIDTH 5 0
BBX 4 10 0 -2
BITMAP
20
50
00
70
90
90
90
70
10
60
ENDCHAR
STARTCHAR u011E
ENCODING 286
SWIDTH 600 0
DWIDTH 6 0
BBX 5 10 0 0
BITMAP
88
70
00
70
88
80
80
98
88
78
ENDCHAR
STARTCHAR u011F
ENCODING 287
SWIDTH 500 0
DWIDTH 5 0
BBX 4 10 0 -2
BITMAP
90
60
00
70
90
90
90
70
10
60
ENDCHAR
STARTCHAR u0120
ENCODING 288
SWIDTH 600 0
DWIDTH 6 0
BBX 5 9 0 0
BITMAP
20
00
70
88
80
80
98
88
78
ENDCHAR
STARTCHAR u0121
ENCODING 289
SWIDTH 500 0
DWIDTH 5 0
BBX 4 9 0 -2
BITMAP
20
00
70
90
90
90
70
10
60
ENDCHAR
STARTCHAR u0122
ENCODING 290
SWIDTH 600 0
DWIDTH 6 0
BBX 5 10 0 -3
BITMAP
70
88
80
80
98
88
78
00
20
40
ENDCHAR
STARTCHAR u0123
ENCODING 291
SWIDTH 500 0
DWIDTH 5 0
BBX 4 10 0 -2
BITMAP
20
40
00
70
90
90
90
70
10
60
ENDCHAR
STARTCHAR u0124
ENCODING 292
SWIDTH 600 0
DWIDTH 6 0
BBX 5 10 0 0
BITMAP
20
50
00
88
88
88
F8
88
88
88
ENDCHAR
STARTCHAR u0125
ENCODING 293
SWIDTH 500 0
DWIDTH 5 0
BBX 4 10 0 0
BITMAP
20
50
00
80
80
E0
90
90
90
90
ENDCHAR
STARTCHAR u0126
ENCODING 294
SWIDTH 800 0
DWIDTH 8 0
BBX 7 7 0 0
BITMAP
44
FE
44
7C
44
44
44
ENDCHAR
STARTCHAR u0127
ENCODING 295
SWIDTH 600 0
DWIDTH 6 0
BBX 5 7 0 0
BITMAP
40
F0
40
70
48
48
48
ENDCHAR
STARTCHAR u0128
ENCODING 296
SWIDTH 400 0
DWIDTH 4 0
BBX 4 10 0 0
BITMAP
50
A0
00
E0
40
40
40
40
40
E0
ENDCHAR
STARTCHAR u0129
ENCODING 297
SWIDTH 400 0
DWIDTH 4 0
BBX 4 8 0 0
BITMAP
50
A0
00
C0
40
40
40
E0
ENDCHAR
STARTCHAR u012A
ENCODING 298
SWIDTH 400 0
DWIDTH 4 0
BBX 3 9 0 0
BITMAP
E0
00
E0
40
40
40
40
40
E0
ENDCHAR
STARTCHAR u012B
ENCODING 299
SWIDTH 400 0
DWIDTH 4 0
BBX 3 7 0 0
BITMAP
E0
00
C0
40
40
40
E0
ENDCHAR
STARTCHAR u012C
ENCODING 300
SWIDTH 400 0
DWIDTH 4 0
BBX 4 10 0 0
BITMAP
90
60
00
E0
40
40
40
40
40
E0
ENDCHAR
STARTCHAR u012D
ENCODING 301
SWIDTH 400 0
DWIDTH 4 0
BBX 4 8 0 0
BITMAP
90
60
00
C0
40
40
40
E0
ENDCHAR
STARTCHAR u012E
ENCODING 302
SWIDTH 400 0
DWIDTH 4 0
BBX 3 9 0 -2
BITMAP
E0
40
40
40
40
40
E0
40
20
ENDCHAR
STARTCHAR u012F
ENCODING 303
SWIDTH 400 0
DWIDTH 4 0
BBX 3 9 0 -2
BITMAP
40
00
C0
40
40
40
E0
40
20
ENDCHAR
STARTCHAR u0130
ENCODING 304
SWIDTH 400 0
DWIDTH 4 0
BBX 3 9 0 0
BITMAP
40
00
E0
40
40
40
40
40
E0
ENDCHAR
STARTCHAR u0131
ENCODING 305
SWIDTH 400 0
DWIDTH 4 0
BBX 3 5 0 0
BITMAP
C0
40
40
40
E0
ENDCHAR
STARTCHAR u0132
ENCODING 306
SWIDTH 900 0
DWIDTH 9 0
BBX 8 7 0 0
BITMAP
E1
41
41
41
49
49
E6
ENDCHAR
STARTCHAR u0133
ENCODING 307
SWIDTH 700 0
DWIDTH 7 0
BBX 6 9 0 -2
BITMAP
44
00
DC
44
44
44
E4
04
18
ENDCHAR
STARTCHAR u0134
ENCODING 308
SWIDTH 500 0
DWIDTH 5 0
BBX 4 10 0 0
BITMAP
20
50
00
10
10
10
10
90
90
60
ENDCHAR
STARTCHAR u0135
ENCODING 309
SWIDTH 400 0
DWIDTH 4 0
BBX 3 10 0 -2
BITMAP
40
A0
00
E0
20
20
20
20
20
C0
ENDCHAR
STARTCHAR u0136
ENCODING 310
SWIDTH 600 0
DWIDTH 6 0
BBX 5 10 0 -3
BITMAP
88
90
A0
C0
A0
90
88
00
20
40
ENDCHAR
STARTCHAR u0137
ENCODING 311
SWIDTH 500 0
DWIDTH 5 0
BBX 4 10 0 -3
BITMAP
80
80
90
A0
C0
A0
90
00
20
40
ENDCHAR
STARTCHAR u0138
ENCODING 312
SWIDTH 500 0
DWIDTH 5 0
BBX 4 5 0 0
BITMAP
90
A0
C0
A0
90
ENDCHAR
STARTCHAR u0139
ENCODING 313
SWIDTH 500 0
DWIDTH 5 0
BBX 4 10 0 0
BITMAP
40
80
00
80
80
80
80
80
80
F0
ENDCHAR
STARTCHAR u013A
ENCODING 314
SWIDTH 400 0
DWIDTH 4 0
BBX 3 10 0 0
BITMAP
20
40
00
C0
40
40
40
40
40
60
ENDCHAR
STARTCHAR u013B
ENCODING 315
SWIDTH 500 0
DWIDTH 5 0
BBX 4 10 0 -3
BITMAP
80
80
80
80
80
80
F0
00
20
40
ENDCHAR
STARTCHAR u013C
ENCODING 316
SWIDTH 400 0
DWIDTH 4 0
BBX 3 10 0 -3
BITMAP
C0
40
40
40
40
40
60
00
40
80
ENDCHAR
STARTCHAR u013D
ENCODING 317
SWIDTH 500 0
DWIDTH 5 0
BBX 4 7 0 0
BITMAP
A0
A0
80
80
80
80
F0
ENDCHAR
STARTCHAR u013E
ENCODING 318
SWIDTH 500 0
DWIDTH 5 0
BBX 4 7 0 0
BITMAP
D0
50
40
40
40
40
60
ENDCHAR
STARTCHAR u013F
ENCODING 319
SWIDTH 500 0
DWIDTH 5 0
BBX 4 7 0 0
BITMAP
80
80
80
A0
80
80
F0
ENDCHAR
STARTCHAR u0140
ENCODING 320
SWIDTH 500 0
DWIDTH 5 0
BBX 4 7 0 0
BITMAP
C0
40
40
50
40
40
60
ENDCHAR
STARTCHAR u0141
ENCODING 321
SWIDTH 600 0
DWIDTH 6 0
BBX 5 7 0 0
BITMAP
40
50
60
40
C0
40
78
ENDCHAR
STARTCHAR u0142
ENCODING 322
SWIDTH 400 0
DWIDTH 4 0
BBX 3 7 0 0
BITMAP
C0
40
60
40
C0
40
60
ENDCHAR
STARTCHAR u0143
ENCODING 323
SWIDTH 600 0
DWIDTH 6 0
BBX 5 10 0 0
BITMAP
10
20
00
88
C8
C8
A8
98
98
88
ENDCHAR
STARTCHAR u0144
ENCODING 324
SWIDTH 500 0
DWIDTH 5 0
BBX 4 8 0 0
BITMAP
20
40
00
E0
90
90
90
90
ENDCHAR
STARTCHAR u0145
ENCODING 325
SWIDTH 600 0
DWIDTH 6 0
BBX 5 10 0 -3
BITMAP
88
C8
C8
A8
98
98
88
00
20
40
ENDCHAR
STARTCHAR u0146
ENCODING 326
SWIDTH 500 0
DWIDTH 5 0
BBX 4 8 0 -3
BITMAP
E0
90
90
90
90
00
20
40
ENDCHAR
STARTCHAR u0147
ENCODING 327
SWIDTH 600 0
DWIDTH 6 0
BBX 5 10 0 0
BITMAP
50
20
00
88
C8
C8
A8
98
98
88
ENDCHAR
STARTCHAR u0148
ENCODING 328
SWIDTH 500 0
DWIDTH 5 0
BBX 4 8 0 0
BITMAP
50
20
00
E0
90
90
90
90
ENDCHAR
STARTCHAR u0149
ENCODING 329
SWIDTH 500 0
DWIDTH 5 0
BBX 4 8 0 0
BITMAP
40
80
00
E0
90
90
90
90
ENDCHAR
STARTCHAR u014A
ENCODING 330
SWIDTH 600 0
DWIDTH 6 0
BBX 5 9 0 -2
BITMAP
88
C8
C8
A8
98
98
88
08
30
ENDCHAR
STARTCHAR u014B
ENCODING 331
SWIDTH 500 0
DWIDTH 5 0
BBX 4 7 0 -2
BITMAP
E0
90
90
90
90
10
60
ENDCHAR
STARTCHAR u014C
ENCODING 332
SWIDTH 600 0
DWIDTH 6 0
BBX 5 9 0 0
BITMAP
70
00
70
88
88
88
88
88
70
ENDCHAR
STARTCHAR u014D
ENCODING 333
SWIDTH 500 0
DWIDTH 5 0
BBX 4 7 0 0
BITMAP
70
00
60
90
90
90
60
ENDCHAR
STARTCHAR u014E
ENCODING 334
SWIDTH 600 0
DWIDTH 6 0
BBX 5 10 0 0
BITMAP
88
70
00
70
88
88
88
88
88
70
ENDCHAR
STARTCHAR u014F
ENCODING 335
SWIDTH 500 0
DWIDTH 5 0
BBX 4 8 0 0
BITMAP
90
60
00
60
90
90
90
60
ENDCHAR
STARTCHAR u0150
ENCODING 336
SWIDTH 600 0
DWIDTH 6 0
BBX 5 10 0 0
BITMAP
28
50
00
70
88
88
88
88
88
70
ENDCHAR
STARTCHAR u0151
ENCODING 337
SWIDTH 500 0
DWIDTH 5 0
BBX 4 8 0 0
BITMAP
50
A0
00
60
90
90
90
60
ENDCHAR
STARTCHAR u0152
ENCODING 338
SWIDTH 800 0
DWIDTH 8 0
BBX 7 7 0 0
BITMAP
7E
90
90
9C
90
90
7E
ENDCHAR
STARTCHAR u0153
ENCODING 339
SWIDTH 800 0
DWIDTH 8 0
BBX 7 5 0 0
BITMAP
6C
92
9E
90
6C
ENDCHAR
STARTCHAR u0154
ENCODING 340
SWIDTH 600 0
DWIDTH 6 0
BBX 5 10 0 0
BITMAP
10
20
00
F0
88
88
F0
90
88
88
ENDCHAR
STARTCHAR u0155
ENCODING 341
SWIDTH 400 0
DWIDTH 4 0
BBX 3 8 0 0
BITMAP
20
40
00
A0
C0
80
80
80
ENDCHAR
STARTCHAR u0156
ENCODING 342
SWIDTH 600 0
DWIDTH 6 0
BBX 5 10 0 -3
BITMAP
F0
88
88
F0
90
88
88
00
20
40
ENDCHAR
STARTCHAR u0157
ENCODING 343
SWIDTH 400 0
DWIDTH 4 0
BBX 3 8 0 -3
BITMAP
A0
C0
80
80
80
00
20
40
ENDCHAR
STARTCHAR u0158
ENCODING 344
SWIDTH 600 0
DWIDTH 6 0
BBX 5 10 0 0
BITMAP
50
20
00
F0
88
88
F0
90
88
88
ENDCHAR
STARTCHAR u0159
ENCODING 345
SWIDTH 400 0
DWIDTH 4 0
BBX 3 8 0 0
BITMAP
A0
40
00
A0
C0
80
80
80
ENDCHAR
STARTCHAR u015A
ENCODING 346
SWIDTH 600 0
DWIDTH 6 0
BBX 5 10 0 0
BITMAP
10
20
00
70
88
80
70
08
88
70
ENDCHAR
STARTCHAR u015B
ENCODING 347
SWIDTH 500 0
DWIDTH 5 0
BBX 4 8 0 0
BITMAP
20
40
00
70
80
60
10
E0
ENDCHAR
STARTCHAR u015C
ENCODING 348
SWIDTH 600 0
DWIDTH 6 0
BBX 5 10 0 0
BITMAP
20
50
00
70
88
80
70
08
88
70
ENDCHAR
STARTCHAR u015D
ENCODING 349
SWIDTH 500 0
DWIDTH 5 0
BBX 4 8 0 0
BITMAP
20
50
00
70
80
60
10
E0
ENDCHAR
STARTCHAR u015E
ENCODING 350
SWIDTH 600 0
DWIDTH 6 0
BBX 5 9 0 -2
BITMAP
70
88
80
70
08
88
70
20
40
ENDCHAR
STARTCHAR u015F
ENCODING 351
SWIDTH 500 0
DWIDTH 5 0
BBX 4 7 0 -2
BITMAP
70
80
60
10
E0
40
80
ENDCHAR
STARTCHAR u0160
ENCODING 352
SWIDTH 600 0
DWIDTH 6 0
BBX 5 10 0 0
BITMAP
50
20
00
70
88
80
70
08
88
70
ENDCHAR
STARTCHAR u0161
ENCODING 353
SWIDTH 500 0
DWIDTH 5 0
BBX 4 8 0 0
BITMAP
50
20
00
70
80
60
10
E0
ENDCHAR
STARTCHAR u0162
ENCODING 354
SWIDTH 600 0
DWIDTH 6 0
BBX 5 9 0 -2
BITMAP
F8
20
20
20
20
20
20
10
20
ENDCHAR
STARTCHAR u0163
ENCODING 355
SWIDTH 500 0
DWIDTH 5 0
BBX 4 9 0 -2
BITMAP
40
40
F0
40
40
40
30
20
40
ENDCHAR
STARTCHAR u0164
ENCODING 356
SWIDTH 600 0
DWIDTH 6 0
BBX 5 10 0 0
BITMAP
50
20
00
F8
20
20
20
20
20
20
ENDCHAR
STARTCHAR u0165
ENCODING 357
SWIDTH 500 0
DWIDTH 5 0
BBX 4 8 0 0
BITMAP
10
50
40
F0
40
40
40
30
ENDCHAR
STARTCHAR u0166
ENCODING 358
SWIDTH 600 0
DWIDTH 6 0
BBX 5 7 0 0
BITMAP
F8
20
20
70
20
20
20
ENDCHAR
STARTCHAR u0167
ENCODING 359
SWIDTH 500 0
DWIDTH 5 0
BBX 4 7 0 0
BITMAP
40
40
F0
40
F0
40
30
ENDCHAR
STARTCHAR u0168
ENCODING 360
SWIDTH 600 0
DWIDTH 6 0
BBX 5 10 0 0
BITMAP
68
90
00
88
88
88
88
88
88
70
ENDCHAR
STARTCHAR u0169
ENCODING 361
SWIDTH 500 0
DWIDTH 5 0
BBX 5 8 0 0
BITMAP
68
90
00
90
90
90
90
70
ENDCHAR
STARTCHAR u016A
ENCODING 362
SWIDTH 600 0
DWIDTH 6 0
BBX 5 9 0 0
BITMAP
70
00
88
88
88
88
88
88
70
ENDCHAR
STARTCHAR u016B
ENCODING 363
SWIDTH 500 0
DWIDTH 5 0
BBX 4 7 0 0
BITMAP
70
00
90
90
90
90
70
ENDCHAR
STARTCHAR u016C
ENCODING 364
SWIDTH 600 0
DWIDTH 6 0
BBX 5 10 0 0
BITMAP
88
70
00
88
88
88
88
88
88
70
ENDCHAR
STARTCHAR u016D
ENCODING 365
SWIDTH 500 0
DWIDTH 5 0
BBX 4 8 0 0
BITMAP
90
60
00
90
90
90
90
70
ENDCHAR
STARTCHAR u016E
ENCODING 366
SWIDTH 600 0
DWIDTH 6 0
BBX 5 11 0 0
BITMAP
20
50
20
00
88
88
88
88
88
88
70
ENDCHAR
STARTCHAR u016F
ENCODING 367
SWIDTH 500 0
DWIDTH 5 0
BBX 4 9 0 0
BITMAP
20
50
20
00
90
90
90
90
70
ENDCHAR
STARTCHAR u0170
ENCODING 368
SWIDTH 600 0
DWIDTH 6 0
BBX 5 10 0 0
BITMAP
28
50
00
88
88
88
88
88
88
70
ENDCHAR
STARTCHAR u0171
ENCODING 369
SWIDTH 500 0
DWIDTH 5 0
BBX 4 8 0 0
BITMAP
50
A0
00
90
90
90
90
70
ENDCHAR
STARTCHAR u0172
ENCODING 370
SWIDTH 600 0
DWIDTH 6 0
BBX 5 9 0 -2
BITMAP
88
88
88
88
88
88
70
20
10
ENDCHAR
STARTCHAR u0173
ENCODING 371
SWIDTH 500 0
DWIDTH 5 0
BBX 4 7 0 -2
BITMAP
90
90
90
90
70
20
10
ENDCHAR
STARTCHAR u0174
ENCODING 372
SWIDTH 800 0
DWIDTH 8 0
BBX 7 10 0 0
BITMAP
10
28
00
92
92
92
AA
AA
44
44
ENDCHAR
STARTCHAR u0175
ENCODING 373
SWIDTH 600 0
DWIDTH 6 0
BBX 5 8 0 0
BITMAP
20
50
00
A8
A8
A8
50
50
ENDCHAR
STARTCHAR u0176
ENCODING 374
SWIDTH 600 0
DWIDTH 6 0
BBX 5 10 0 0
BITMAP
20
50
00
88
88
50
50
20
20
20
ENDCHAR
STARTCHAR u0177
ENCODING 375
SWIDTH 600 0
DWIDTH 6 0
BBX 5 10 0 -2
BITMAP
20
50
00
88
88
50
50
20
20
C0
ENDCHAR
STARTCHAR u0178
ENCODING 376
SWIDTH 600 0
DWIDTH 6 0
BBX 5 9 0 0
BITMAP
50
00
88
88
50
50
20
20
20
ENDCHAR
STARTCHAR u0179
ENCODING 377
SWIDTH 600 0
DWIDTH 6 0
BBX 5 10 0 0
BITMAP
10
20
00
F8
08
10
20
40
80
F8
ENDCHAR
STARTCHAR u017A
ENCODING 378
SWIDTH 500 0
DWIDTH 5 0
BBX 4 8 0 0
BITMAP
20
40
00
F0
20
40
80
F0
ENDCHAR
STARTCHAR u017B
ENCODING 379
SWIDTH 600 0
DWIDTH 6 0
BBX 5 9 0 0
BITMAP
20
00
F8
08
10
20
40
80
F8
ENDCHAR
STARTCHAR u017C
ENCODING 380
SWIDTH 500 0
DWIDTH 5 0
BBX 4 7 0 0
BITMAP
20
00
F0
20
40
80
F0
ENDCHAR
STARTCHAR u017D
ENCODING 381
SWIDTH 600 0
DWIDTH 6 0
BBX 5 10 0 0
BITMAP
50
20
00
F8
08
10
20
40
80
F8
ENDCHAR
STARTCHAR u017E
ENCODING 382
SWIDTH 500 0
DWIDTH 5 0
BBX 4 8 0 0
BITMAP
50
20
00
F0
20
40
80
F0
ENDCHAR
STARTCHAR u017F
ENCODING 383
SWIDTH 500 0
DWIDTH 5 0
BBX 4 7 0 0
BITMAP
30
40
C0
40
40
40
40
ENDCHAR
STARTCHAR u0180
ENCODING 384
SWIDTH 600 0
DWIDTH 6 0
BBX 5 7 0 0
BITMAP
40
E0
40
70
48
48
70
ENDCHAR
STARTCHAR u0182
ENCODING 386
SWIDTH 600 0
DWIDTH 6 0
BBX 5 7 0 0
BITMAP
F0
80
80
F0
88
88
F0
ENDCHAR
STARTCHAR u0183
ENCODING 387
SWIDTH 500 0
DWIDTH 5 0
BBX 4 7 0 0
BITMAP
E0
80
E0
90
90
90
E0
ENDCHAR
STARTCHAR u0186
ENCODING 390
SWIDTH 600 0
DWIDTH 6 0
BBX 5 7 0 0
BITMAP
70
88
08
08
08
88
70
ENDCHAR
STARTCHAR u0189
ENCODING 393
SWIDTH 700 0
DWIDTH 7 0
BBX 6 7 0 0
BITMAP
78
44
44
F4
44
44
78
ENDCHAR
STARTCHAR u018B
ENCODING 395
SWIDTH 600 0
DWIDTH 6 0
BBX 5 7 0 0
BITMAP
78
08
08
78
88
88
78
ENDCHAR
STARTCHAR u018C
ENCODING 396
SWIDTH 500 0
DWIDTH 5 0
BBX 4 7 0 0
BITMAP
70
10
70
90
90
90
70
ENDCHAR
STARTCHAR u018E
ENCODING 398
SWIDTH 600 0
DWIDTH 6 0
BBX 5 7 0 0
BITMAP
F8
08
08
78
08
08
F8
ENDCHAR
STARTCHAR u018F
ENCODING 399
SWIDTH 600 0
DWIDTH 6 0
BBX 5 7 0 0
BITMAP
70
88
08
F8
88
88
70
ENDCHAR
STARTCHAR u0191
ENCODING 401
SWIDTH 800 0
DWIDTH 8 0
BBX 7 9 0 -2
BITMAP
3E
20
20
3C
20
20
20
20
C0
ENDCHAR
STARTCHAR u0192
ENCODING 402
SWIDTH 500 0
DWIDTH 5 0
BBX 4 9 0 -2
BITMAP
30
40
F0
40
40
40
40
40
80
ENDCHAR
STARTCHAR u019A
ENCODING 410
SWIDTH 400 0
DWIDTH 4 0
BBX 3 7 0 0
BITMAP
C0
40
40
E0
40
40
60
ENDCHAR
STARTCHAR u019E
ENCODING 414
SWIDTH 500 0
DWIDTH 5 0
BBX 4 7 0 -2
BITMAP
E0
90
90
90
90
10
10
ENDCHAR
STARTCHAR u019F
ENCODING 415
SWIDTH 600 0
DWIDTH 6 0
BBX 5 7 0 0
BITMAP
70
88
88
F8
88
88
70
ENDCHAR
STARTCHAR u01A0
ENCODING 416
SWIDTH 600 0
DWIDTH 6 0
BBX 5 9 0 0
BITMAP
08
08
70
88
88
88
88
88
70
ENDCHAR
STARTCHAR u01A1
ENCODING 417
SWIDTH 600 0
DWIDTH 6 0
BBX 5 6 0 0
BITMAP
08
68
90
90
90
60
ENDCHAR
STARTCHAR u01A7
ENCODING 423
SWIDTH 600 0
DWIDTH 6 0
BBX 5 7 0 0
BITMAP
70
88
08
70
80
88
70
ENDCHAR
STARTCHAR u01A8
ENCODING 424
SWIDTH 500 0
DWIDTH 5 0
BBX 4 5 0 0
BITMAP
E0
10
60
80
70
ENDCHAR
STARTCHAR u01A9
ENCODING 425
SWIDTH 600 0
DWIDTH 6 0
BBX 5 7 0 0
BITMAP
F8
40
20
10
20
40
F8
ENDCHAR
STARTCHAR u01AF
ENCODING 431
SWIDTH 700 0
DWIDTH 7 0
BBX 6 9 0 0
BITMAP
04
04
88
88
88
88
88
88
70
ENDCHAR
STARTCHAR u01B0
ENCODING 432
SWIDTH 600 0
DWIDTH 6 0
BBX 5 7 0 0
BITMAP
08
08
90
90
90
90
70
ENDCHAR
STARTCHAR u01B1
ENCODING 433
SWIDTH 600 0
DWIDTH 6 0
BBX 5 7 0 0
BITMAP
D8
50
88
88
88
88
70
ENDCHAR
STARTCHAR u01C4
ENCODING 452
SWIDTH 1200 0
DWIDTH 12 0
BBX 11 10 0 0
BITMAP
0140
0080
0000
F3E0
8820
8840
8880
8900
8A00
F3E0
ENDCHAR
STARTCHAR u01C5
ENCODING 453
SWIDTH 1100 0
DWIDTH 11 0
BBX 10 8 0 0
BITMAP
0140
F080
8800
8BC0
8880
8900
8A00
F3C0
ENDCHAR
STARTCHAR u01C6
ENCODING 454
SWIDTH 1000 0
DWIDTH 10 0
BBX 9 8 0 0
BITMAP
0280
1100
1000
7780
9100
9200
9400
7780
ENDCHAR
STARTCHAR u01C7
ENCODING 455
SWIDTH 1000 0
DWIDTH 10 0
BBX 9 7 0 0
BITMAP
8080
8080
8080
8080
8480
8480
F300
ENDCHAR
STARTCHAR u01C8
ENCODING 456
SWIDTH 800 0
DWIDTH 8 0
BBX 7 9 0 -2
BITMAP
82
80
8E
82
82
82
F2
02
0C
ENDCHAR
STARTCHAR u01C9
ENCODING 457
SWIDTH 700 0
DWIDTH 7 0
BBX 6 9 0 -2
BITMAP
C4
40
5C
44
44
44
64
04
18
ENDCHAR
STARTCHAR u01CA
ENCODING 458
SWIDTH 1100 0
DWIDTH 11 0
BBX 10 7 0 0
BITMAP
8840
C840
C840
A840
9A40
9A40
8980
ENDCHAR
STARTCHAR u01CB
ENCODING 459
SWIDTH 1000 0
DWIDTH 10 0
BBX 9 9 0 -2
BITMAP
8880
C800
CB80
A880
9880
9880
8880
0080
0300
ENDCHAR
STARTCHAR u01CC
ENCODING 460
SWIDTH 900 0
DWIDTH 9 0
BBX 8 9 0 -2
BITMAP
01
00
E7
91
91
91
91
01
06
ENDCHAR
STARTCHAR u01CD
ENCODING 461
SWIDTH 600 0
DWIDTH 6 0
BBX 5 10 0 0
BITMAP
50
20
00
20
20
50
50
70
88
88
ENDCHAR
STARTCHAR u01CE
ENCODING 462
SWIDTH 500 0
DWIDTH 5 0
BBX 4 8 0 0
BITMAP
50
20
00
60
10
70
90
70
ENDCHAR
STARTCHAR u01CF
ENCODING 463
SWIDTH 400 0
DWIDTH 4 0
BBX 3 10 0 0
BITMAP
A0
40
00
E0
40
40
40
40
40
E0
ENDCHAR
STARTCHAR u01D0
ENCODING 464
SWIDTH 400 0
DWIDTH 4 0
BBX 3 8 0 0
BITMAP
A0
40
00
C0
40
40
40
E0
ENDCHAR
STARTCHAR u01D1
ENCODING 465
SWIDTH 600 0
DWIDTH 6 0
BBX 5 10 0 0
BITMAP
50
20
00
70
88
88
88
88
88
70
ENDCHAR
STARTCHAR u01D2
ENCODING 466
SWIDTH 500 0
DWIDTH 5 0
BBX 4 8 0 0
BITMAP
50
20
00
60
90
90
90
60
ENDCHAR
STARTCHAR u01D3
ENCODING 467
SWIDTH 600 0
DWIDTH 6 0
BBX 5 10 0 0
BITMAP
50
20
00
88
88
88
88
88
88
70
ENDCHAR
STARTCHAR u01D4
ENCODING 468
SWIDTH 500 0
DWIDTH 5 0
BBX 4 8 0 0
BITMAP
50
20
00
90
90
90
90
70
ENDCHAR
STARTCHAR u01D5
ENCODING 469
SWIDTH 600 0
DWIDTH 6 0
BBX 5 11 0 0
BITMAP
70
00
50
00
88
88
88
88
88
88
70
ENDCHAR
STARTCHAR u01D6
ENCODING 470
SWIDTH 500 0
DWIDTH 5 0
BBX 4 9 0 0
BITMAP
70
00
50
00
90
90
90
90
70
ENDCHAR
STARTCHAR u01D7
ENCODING 471
SWIDTH 600 0
DWIDTH 6 0
BBX 5 12 0 0
BITMAP
10
20
00
50
00
88
88
88
88
88
88
70
ENDCHAR
STARTCHAR u01D8
ENCODING 472
SWIDTH 500 0
DWIDTH 5 0
BBX 4 10 0 0
BITMAP
10
20
00
50
00
90
90
90
90
70
ENDCHAR
STARTCHAR u01D9
ENCODING 473
SWIDTH 600 0
DWIDTH 6 0
BBX 5 12 0 0
BITMAP
50
20
00
50
00
88
88
88
88
88
88
70
ENDCHAR
STARTCHAR u01DA
ENCODING 474
SWIDTH 500 0
DWIDTH 5 0
BBX 4 10 0 0
BITMAP
50
20
00
50
00
90
90
90
90
70
ENDCHAR
STARTCHAR u01DB
ENCODING 475
SWIDTH 600 0
DWIDTH 6 0
BBX 5 12 0 0
BITMAP
40
20
00
50
00
88
88
88
88
88
88
70
ENDCHAR
STARTCHAR u01DC
ENCODING 476
SWIDTH 500 0
DWIDTH 5 0
BBX 4 10 0 0
BITMAP
40
20
00
50
00
90
90
90
90
70
ENDCHAR
STARTCHAR u01DD
ENCODING 477
SWIDTH 500 0
DWIDTH 5 0
BBX 4 5 0 0
BITMAP
60
10
F0
90
60
ENDCHAR
STARTCHAR u01DE
ENCODING 478
SWIDTH 600 0
DWIDTH 6 0
BBX 5 11 0 0
BITMAP
70
00
50
00
20
20
50
50
70
88
88
ENDCHAR
STARTCHAR u01DF
ENCODING 479
SWIDTH 500 0
DWIDTH 5 0
BBX 4 9 0 0
BITMAP
70
00
50
00
60
10
70
90
70
ENDCHAR
STARTCHAR u01E0
ENCODING 480
SWIDTH 600 0
DWIDTH 6 0
BBX 5 11 0 0
BITMAP
70
00
20
00
20
20
50
50
70
88
88
ENDCHAR
STARTCHAR u01E1
ENCODING 481
SWIDTH 500 0
DWIDTH 5 0
BBX 4 9 0 0
BITMAP
70
00
20
00
60
10
70
90
70
ENDCHAR
STARTCHAR u01E2
ENCODING 482
SWIDTH 800 0
DWIDTH 8 0
BBX 7 9 0 0
BITMAP
38
00
3E
30
50
5C
70
90
9E
ENDCHAR
STARTCHAR u01E3
ENCODING 483
SWIDTH 800 0
DWIDTH 8 0
BBX 7 7 0 0
BITMAP
38
00
6C
12
7E
90
6C
ENDCHAR
STARTCHAR u01E6
ENCODING 486
SWIDTH 600 0
DWIDTH 6 0
BBX 5 10 0 0
BITMAP
50
20
00
70
88
80
80
98
88
78
ENDCHAR
STARTCHAR u01E7
ENCODING 487
SWIDTH 500 0
DWIDTH 5 0
BBX 4 10 0 -2
BITMAP
50
20
00
70
90
90
90
70
10
60
ENDCHAR
STARTCHAR u01E8
ENCODING 488
SWIDTH 600 0
DWIDTH 6 0
BBX 5 10 0 0
BITMAP
50
20
00
88
90
A0
C0
A0
90
88
ENDCHAR
STARTCHAR u01E9
ENCODING 489
SWIDTH 500 0
DWIDTH 5 0
BBX 4 10 0 0
BITMAP
50
20
00
80
80
90
A0
C0
A0
90
ENDCHAR
STARTCHAR u01EA
ENCODING 490
SWIDTH 600 0
DWIDTH 6 0
BBX 5 9 0 -2
BITMAP
70
88
88
88
88
88
70
20
10
ENDCHAR
STARTCHAR u01EB
ENCODING 491
SWIDTH 500 0
DWIDTH 5 0
BBX 4 7 0 -2
BITMAP
60
90
90
90
60
40
20
ENDCHAR
STARTCHAR u01EC
ENCODING 492
SWIDTH 600 0
DWIDTH 6 0
BBX 5 11 0 -2
BITMAP
70
00
70
88
88
88
88
88
70
20
10
ENDCHAR
STARTCHAR u01ED
ENCODING 493
SWIDTH 500 0
DWIDTH 5 0
BBX 4 9 0 -2
BITMAP
70
00
60
90
90
90
60
40
20
ENDCHAR
STARTCHAR u01F0
ENCODING 496
SWIDTH 400 0
DWIDTH 4 0
BBX 3 10 0 -2
BITMAP
A0
40
00
E0
20
20
20
20
20
C0
ENDCHAR
STARTCHAR u01F1
ENCODING 497
SWIDTH 1200 0
DWIDTH 12 0
BBX 11 7 0 0
BITMAP
F3E0
8820
8840
8880
8900
8A00
F3E0
ENDCHAR
STARTCHAR u01F2
ENCODING 498
SWIDTH 1100 0
DWIDTH 11 0
BBX 10 7 0 0
BITMAP
F000
8800
8BC0
8880
8900
8A00
F3C0
ENDCHAR
STARTCHAR u01F3
ENCODING 499
SWIDTH 1000 0
DWIDTH 10 0
BBX 9 7 0 0
BITMAP
1000
1000
7780
9100
9200
9400
7780
ENDCHAR
STARTCHAR u01F4
ENCODING 500
SWIDTH 600 0
DWIDTH 6 0
BBX 5 10 0 0
BITMAP
10
20
00
70
88
80
80
98
88
78
ENDCHAR
STARTCHAR u01F5
ENCODING 501
SWIDTH 500 0
DWIDTH 5 0
BBX 4 10 0 -2
BITMAP
20
40
00
70
90
90
90
70
10
60
ENDCHAR
STARTCHAR u01F8
ENCODING 504
SWIDTH 600 0
DWIDTH 6 0
BBX 5 10 0 0
BITMAP
40
20
00
88
C8
C8
A8
98
98
88
ENDCHAR
STARTCHAR u01F9
ENCODING 505
SWIDTH 500 0
DWIDTH 5 0
BBX 4 8 0 0
BITMAP
40
20
00
E0
90
90
90
90
ENDCHAR
STARTCHAR u01FA
ENCODING 506
SWIDTH 600 0
DWIDTH 6 0
BBX 5 12 0 0
BITMAP
10
20
50
20
00
20
20
50
50
70
88
88
ENDCHAR
STARTCHAR u01FB
ENCODING 507
SWIDTH 500 0
DWIDTH 5 0
BBX 4 10 0 0
BITMAP
10
20
50
20
00
60
10
70
90
70
ENDCHAR
STARTCHAR u01FC
ENCODING 508
SWIDTH 800 0
DWIDTH 8 0
BBX 7 10 0 0
BITMAP
08
10
00
3E
30
50
5C
70
90
9E
ENDCHAR
STARTCHAR u01FD
ENCODING 509
SWIDTH 800 0
DWIDTH 8 0
BBX 7 8 0 0
BITMAP
08
10
00
6C
12
7E
90
6C
ENDCHAR
STARTCHAR u01FE
ENCODING 510
SWIDTH 600 0
DWIDTH 6 0
BBX 5 11 0 -1
BITMAP
10
20
08
70
98
A8
A8
A8
C8
70
80
ENDCHAR
STARTCHAR u01FF
ENCODING 511
SWIDTH 500 0
DWIDTH 5 0
BBX 4 9 0 -1
BITMAP
20
40
10
60
90
F0
90
60
80
ENDCHAR
STARTCHAR u0200
ENCODING 512
SWIDTH 600 0
DWIDTH 6 0
BBX 5 10 0 0
BITMAP
A0
50
00
20
20
50
50
70
88
88
ENDCHAR
STARTCHAR u0201
ENCODING 513
SWIDTH 500 0
DWIDTH 5 0
BBX 4 8 0 0
BITMAP
A0
50
00
60
10
70
90
70
ENDCHAR
STARTCHAR u0202
ENCODING 514
SWIDTH 600 0
DWIDTH 6 0
BBX 5 10 0 0
BITMAP
70
88
00
20
20
50
50
70
88
88
ENDCHAR
STARTCHAR u0203
ENCODING 515
SWIDTH 500 0
DWIDTH 5 0
BBX 4 8 0 0
BITMAP
60
90
00
60
10
70
90
70
ENDCHAR
STARTCHAR u0204
ENCODING 516
SWIDTH 600 0
DWIDTH 6 0
BBX 5 10 0 0
BITMAP
A0
50
00
F8
80
80
F0
80
80
F8
ENDCHAR
STARTCHAR u0205
ENCODING 517
SWIDTH 500 0
DWIDTH 5 0
BBX 4 8 0 0
BITMAP
A0
50
00
60
90
F0
80
60
ENDCHAR
STARTCHAR u0206
ENCODING 518
SWIDTH 600 0
DWIDTH 6 0
BBX 5 10 0 0
BITMAP
70
88
00
F8
80
80
F0
80
80
F8
ENDCHAR
STARTCHAR u0207
ENCODING 519
SWIDTH 500 0
DWIDTH 5 0
BBX 4 8 0 0
BITMAP
60
90
00
60
90
F0
80
60
ENDCHAR
STARTCHAR u0208
ENCODING 520
SWIDTH 400 0
DWIDTH 4 0
BBX 4 10 0 0
BITMAP
A0
50
00
E0
40
40
40
40
40
E0
ENDCHAR
STARTCHAR u0209
ENCODING 521
SWIDTH 400 0
DWIDTH 4 0
BBX 4 8 0 0
BITMAP
A0
50
00
C0
40
40
40
E0
ENDCHAR
STARTCHAR u020A
ENCODING 522
SWIDTH 400 0
DWIDTH 4 0
BBX 4 10 0 0
BITMAP
60
90
00
E0
40
40
40
40
40
E0
ENDCHAR
STARTCHAR u020B
ENCODING 523
SWIDTH 400 0
DWIDTH 4 0
BBX 4 8 0 0
BITMAP
60
90
00
C0
40
40
40
E0
ENDCHAR
STARTCHAR u020C
ENCODING 524
SWIDTH 600 0
DWIDTH 6 0
BBX 5 10 0 0
BITMAP
A0
50
00
70
88
88
88
88
88
70
ENDCHAR
STARTCHAR u020D
ENCODING 525
SWIDTH 500 0
DWIDTH 5 0
BBX 4 8 0 0
BITMAP
A0
50
00
60
90
90
90
60
ENDCHAR
STARTCHAR u020E
ENCODING 526
SWIDTH 600 0
DWIDTH 6 0
BBX 5 10 0 0
BITMAP
70
88
00
70
88
88
88
88
88
70
ENDCHAR
STARTCHAR u020F
ENCODING 527
SWIDTH 500 0
DWIDTH 5 0
BBX 4 8 0 0
BITMAP
60
90
00
60
90
90
90
60
ENDCHAR
STARTCHAR u0210
ENCODING 528
SWIDTH 600 0
DWIDTH 6 0
BBX 5 10 0 0
BITMAP
A0
50
00
F0
88
88
F0
90
88
88
ENDCHAR
STARTCHAR u0211
ENCODING 529
SWIDTH 400 0
DWIDTH 4 0
BBX 4 8 0 0
BITMAP
A0
50
00
A0
C0
80
80
80
ENDCHAR
STARTCHAR u0212
ENCODING 530
SWIDTH 600 0
DWIDTH 6 0
BBX 5 10 0 0
BITMAP
70
88
00
F0
88
88
F0
90
88
88
ENDCHAR
STARTCHAR u0213
ENCODING 531
SWIDTH 400 0
DWIDTH 4 0
BBX 4 8 0 0
BITMAP
60
90
00
A0
C0
80
80
80
ENDCHAR
STARTCHAR u0214
ENCODING 532
SWIDTH 600 0
DWIDTH 6 0
BBX 5 10 0 0
BITMAP
A0
50
00
88
88
88
88
88
88
70
ENDCHAR
STARTCHAR u0215
ENCODING 533
SWIDTH 500 0
DWIDTH 5 0
BBX 4 8 0 0
BITMAP
A0
50
00
90
90
90
90
70
ENDCHAR
STARTCHAR u0216
ENCODING 534
SWIDTH 600 0
DWIDTH 6 0
BBX 5 10 0 0
BITMAP
70
88
00
88
88
88
88
88
88
70
ENDCHAR
STARTCHAR u0217
ENCODING 535
SWIDTH 500 0
DWIDTH 5 0
BBX 4 8 0 0
BITMAP
60
90
00
90
90
90
90
70
ENDCHAR
STARTCHAR u0218
ENCODING 536
SWIDTH 600 0
DWIDTH 6 0
BBX 5 10 0 -3
BITMAP
70
88
80
70
08
88
70
00
20
40
ENDCHAR
STARTCHAR u0219
ENCODING 537
SWIDTH 500 0
DWIDTH 5 0
BBX 4 8 0 -3
BITMAP
70
80
60
10
E0
00
20
40
ENDCHAR
STARTCHAR u021A
ENCODING 538
SWIDTH 600 0
DWIDTH 6 0
BBX 5 10 0 -3
BITMAP
F8
20
20
20
20
20
20
00
20
40
ENDCHAR
STARTCHAR u021B
ENCODING 539
SWIDTH 500 0
DWIDTH 5 0
BBX 4 10 0 -3
BITMAP
40
40
F0
40
40
40
30
00
20
40
ENDCHAR
STARTCHAR u021E
ENCODING 542
SWIDTH 600 0
DWIDTH 6 0
BBX 5 10 0 0
BITMAP
50
20
00
88
88
88
F8
88
88
88
ENDCHAR
STARTCHAR u021F
ENCODING 543
SWIDTH 500 0
DWIDTH 5 0
BBX 4 10 0 0
BITMAP
50
20
00
80
80
E0
90
90
90
90
ENDCHAR
STARTCHAR u0220
ENCODING 544
SWIDTH 600 0
DWIDTH 6 0
BBX 5 9 0 -2
BITMAP
B0
C8
88
88
88
88
88
08
08
ENDCHAR
STARTCHAR u0226
ENCODING 550
SWIDTH 600 0
DWIDTH 6 0
BBX 5 9 0 0
BITMAP
20
00
20
20
50
50
70
88
88
ENDCHAR
STARTCHAR u0227
ENCODING 551
SWIDTH 500 0
DWIDTH 5 0
BBX 4 7 0 0
BITMAP
20
00
60
10
70
90
70
ENDCHAR
STARTCHAR u0228
ENCODING 552
SWIDTH 600 0
DWIDTH 6 0
BBX 5 9 0 -2
BITMAP
F8
80
80
F0
80
80
F8
20
40
ENDCHAR
STARTCHAR u0229
ENCODING 553
SWIDTH 500 0
DWIDTH 5 0
BBX 4 7 0 -2
BITMAP
60
90
F0
80
70
20
40
ENDCHAR
STARTCHAR u022A
ENCODING 554
SWIDTH 600 0
DWIDTH 6 0
BBX 5 11 0 0
BITMAP
70
00
50
00
70
88
88
88
88
88
70
ENDCHAR
STARTCHAR u022B
ENCODING 555
SWIDTH 500 0
DWIDTH 5 0
BBX 4 9 0 0
BITMAP
70
00
50
00
60
90
90
90
60
ENDCHAR
STARTCHAR u022C
ENCODING 556
SWIDTH 600 0
DWIDTH 6 0
BBX 5 12 0 0
BITMAP
70
00
68
90
00
70
88
88
88
88
88
70
ENDCHAR
STARTCHAR u022D
ENCODING 557
SWIDTH 500 0
DWIDTH 5 0
BBX 5 10 0 0
BITMAP
70
00
68
90
00
60
90
90
90
60
ENDCHAR
STARTCHAR u022E
ENCODING 558
SWIDTH 600 0
DWIDTH 6 0
BBX 5 9 0 0
BITMAP
20
00
70
88
88
88
88
88
70
ENDCHAR
STARTCHAR u022F
ENCODING 559
SWIDTH 500 0
DWIDTH 5 0
BBX 4 7 0 0
BITMAP
20
00
60
90
90
90
60
ENDCHAR
STARTCHAR u0230
ENCODING 560
SWIDTH 600 0
DWIDTH 6 0
BBX 5 11 0 0
BITMAP
70
00
20
00
70
88
88
88
88
88
70
ENDCHAR
STARTCHAR u0231
ENCODING 561
SWIDTH 500 0
DWIDTH 5 0
BBX 4 9 0 0
BITMAP
70
00
20
00
60
90
90
90
60
ENDCHAR
STARTCHAR u0232
ENCODING 562
SWIDTH 600 0
DWIDTH 6 0
BBX 5 9 0 0
BITMAP
70
00
88
88
50
50
20
20
20
ENDCHAR
STARTCHAR u0233
ENCODING 563
SWIDTH 600 0
DWIDTH 6 0
BBX 5 9 0 -2
BITMAP
70
00
88
88
50
50
20
20
C0
ENDCHAR
STARTCHAR u0237
ENCODING 567
SWIDTH 400 0
DWIDTH 4 0
BBX 3 7 0 -2
BITMAP
E0
20
20
20
20
20
C0
ENDCHAR
STARTCHAR u023D
ENCODING 573
SWIDTH 600 0
DWIDTH 6 0
BBX 5 7 0 0
BITMAP
40
40
40
F0
40
40
78
ENDCHAR
STARTCHAR u0244
ENCODING 580
SWIDTH 800 0
DWIDTH 8 0
BBX 7 7 0 0
BITMAP
44
44
44
FE
44
44
38
ENDCHAR
STARTCHAR u0245
ENCODING 581
SWIDTH 600 0
DWIDTH 6 0
BBX 5 7 0 0
BITMAP
20
20
50
50
50
88
88
ENDCHAR
STARTCHAR u0248
ENCODING 584
SWIDTH 600 0
DWIDTH 6 0
BBX 5 7 0 0
BITMAP
10
10
78
10
90
90
60
ENDCHAR
STARTCHAR u0249
ENCODING 585
SWIDTH 500 0
DWIDTH 5 0
BBX 4 9 0 -2
BITMAP
20
00
E0
20
F0
20
20
20
C0
ENDCHAR
STARTCHAR u0376
ENCODING 886
SWIDTH 600 0
DWIDTH 6 0
BBX 5 7 0 0
BITMAP
88
98
98
A8
C8
C8
88
ENDCHAR
STARTCHAR u0377
ENCODING 887
SWIDTH 500 0
DWIDTH 5 0
BBX 4 5 0 0
BITMAP
90
B0
D0
90
90
ENDCHAR
STARTCHAR u037B
ENCODING 891
SWIDTH 500 0
DWIDTH 5 0
BBX 4 5 0 0
BITMAP
60
90
10
90
60
ENDCHAR
STARTCHAR u037C
ENCODING 892
SWIDTH 500 0
DWIDTH 5 0
BBX 4 5 0 0
BITMAP
60
90
C0
90
60
ENDCHAR
STARTCHAR u037D
ENCODING 893
SWIDTH 500 0
DWIDTH 5 0
BBX 4 5 0 0
BITMAP
60
90
30
90
60
ENDCHAR
STARTCHAR u037E
ENCODING 894
SWIDTH 400 0
DWIDTH 4 0
BBX 2 7 0 -2
BITMAP
40
00
00
00
40
40
80
ENDCHAR
STARTCHAR u037F
ENCODING 895
SWIDTH 500 0
DWIDTH 5 0
BBX 4 7 0 0
BITMAP
10
10
10
10
90
90
60
ENDCHAR
STARTCHAR u0384
ENCODING 900
SWIDTH 400 0
DWIDTH 4 0
BBX 2 2 1 8
BITMAP
40
80
ENDCHAR
STARTCHAR u0385
ENCODING 901
SWIDTH 400 0
DWIDTH 4 0
BBX 3 4 0 6
BITMAP
20
40
00
A0
ENDCHAR
STARTCHAR u0386
ENCODING 902
SWIDTH 600 0
DWIDTH 6 0
BBX 5 10 0 0
BITMAP
40
80
00
20
20
50
50
70
88
88
ENDCHAR
STARTCHAR u0387
ENCODING 903
SWIDTH 400 0
DWIDTH 4 0
BBX 1 1 1 3
BITMAP
80
ENDCHAR
STARTCHAR u0388
ENCODING 904
SWIDTH 600 0
DWIDTH 6 0
BBX 5 10 0 0
BITMAP
40
80
00
F8
80
80
F0
80
80
F8
ENDCHAR
STARTCHAR u0389
ENCODING 905
SWIDTH 600 0
DWIDTH 6 0
BBX 5 10 0 0
BITMAP
40
80
00
88
88
88
F8
88
88
88
ENDCHAR
STARTCHAR u038A
ENCODING 906
SWIDTH 400 0
DWIDTH 4 0
BBX 3 10 0 0
BITMAP
40
80
00
E0
40
40
40
40
40
E0
ENDCHAR
STARTCHAR u038C
ENCODING 908
SWIDTH 600 0
DWIDTH 6 0
BBX 5 10 0 0
BITMAP
40
80
00
70
88
88
88
88
88
70
ENDCHAR
STARTCHAR u038E
ENCODING 910
SWIDTH 600 0
DWIDTH 6 0
BBX 5 10 0 0
BITMAP
40
80
00
88
88
50
50
20
20
20
ENDCHAR
STARTCHAR u038F
ENCODING 911
SWIDTH 600 0
DWIDTH 6 0
BBX 5 10 0 0
BITMAP
40
80
00
70
88
88
88
88
50
D8
ENDCHAR
STARTCHAR u0390
ENCODING 912
SWIDTH 400 0
DWIDTH 4 0
BBX 3 10 0 0
BITMAP
20
40
00
A0
00
40
C0
40
40
20
ENDCHAR
STARTCHAR u0391
ENCODING 913
SWIDTH 600 0
DWIDTH 6 0
BBX 5 7 0 0
BITMAP
20
20
50
50
70
88
88
ENDCHAR
STARTCHAR u0392
ENCODING 914
SWIDTH 600 0
DWIDTH 6 0
BBX 5 7 0 0
BITMAP
F0
88
88
F0
88
88
F0
ENDCHAR
STARTCHAR u0393
ENCODING 915
SWIDTH 500 0
DWIDTH 5 0
BBX 4 7 0 0
BITMAP
F0
80
80
80
80
80
80
ENDCHAR
STARTCHAR u0394
ENCODING 916
SWIDTH 600 0
DWIDTH 6 0
BBX 5 7 0 0
BITMAP
20
20
50
50
88
88
F8
ENDCHAR
STARTCHAR u0395
ENCODING 917
SWIDTH 600 0
DWIDTH 6 0
BBX 5 7 0 0
BITMAP
F8
80
80
F0
80
80
F8
ENDCHAR
STARTCHAR u0396
ENCODING 918
SWIDTH 600 0
DWIDTH 6 0
BBX 5 7 0 0
BITMAP
F8
08
10
20
40
80
F8
ENDCHAR
STARTCHAR u0397
ENCODING 919
SWIDTH 600 0
DWIDTH 6 0
BBX 5 7 0 0
BITMAP
88
88
88
F8
88
88
88
ENDCHAR
STARTCHAR u0398
ENCODING 920
SWIDTH 600 0
DWIDTH 6 0
BBX 5 7 0 0
BITMAP
70
88
88
E8
88
88
70
ENDCHAR
STARTCHAR u0399
ENCODING 921
SWIDTH 400 0
DWIDTH 4 0
BBX 3 7 0 0
BITMAP
E0
40
40
40
40
40
E0
ENDCHAR
STARTCHAR u039A
ENCODING 922
SWIDTH 600 0
DWIDTH 6 0
BBX 5 7 0 0
BITMAP
88
90
A0
C0
A0
90
88
ENDCHAR
STARTCHAR u039B
ENCODING 923
SWIDTH 600 0
DWIDTH 6 0
BBX 5 7 0 0
BITMAP
20
20
50
50
50
88
88
ENDCHAR
STARTCHAR u039C
ENCODING 924
SWIDTH 800 0
DWIDTH 8 0
BBX 7 7 0 0
BITMAP
82
C6
C6
AA
AA
92
92
ENDCHAR
STARTCHAR u039D
ENCODING 925
SWIDTH 600 0
DWIDTH 6 0
BBX 5 7 0 0
BITMAP
88
C8
C8
A8
98
98
88
ENDCHAR
STARTCHAR u039E
ENCODING 926
SWIDTH 600 0
DWIDTH 6 0
BBX 5 7 0 0
BITMAP
F8
00
00
70
00
00
F8
ENDCHAR
STARTCHAR u039F
ENCODING 927
SWIDTH 600 0
DWIDTH 6 0
BBX 5 7 0 0
BITMAP
70
88
88
88
88
88
70
ENDCHAR
STARTCHAR u03A0
ENCODING 928
SWIDTH 600 0
DWIDTH 6 0
BBX 5 7 0 0
BITMAP
F8
88
88
88
88
88
88
ENDCHAR
STARTCHAR u03A1
ENCODING 929
SWIDTH 600 0
DWIDTH 6 0
BBX 5 7 0 0
BITMAP
F0
88
88
F0
80
80
80
ENDCHAR
STARTCHAR u03A3
ENCODING 931
SWIDTH 600 0
DWIDTH 6 0
BBX 5 7 0 0
BITMAP
F8
40
20
10
20
40
F8
ENDCHAR
STARTCHAR u03A4
ENCODING 932
SWIDTH 600 0
DWIDTH 6 0
BBX 5 7 0 0
BITMAP
F8
20
20
20
20
20
20
ENDCHAR
STARTCHAR u03A5
ENCODING 933
SWIDTH 600 0
DWIDTH 6 0
BBX 5 7 0 0
BITMAP
88
88
50
50
20
20
20
ENDCHAR
STARTCHAR u03A6
ENCODING 934
SWIDTH 800 0
DWIDTH 8 0
BBX 7 7 0 0
BITMAP
10
7C
92
92
92
7C
10
ENDCHAR
STARTCHAR u03A7
ENCODING 935
SWIDTH 600 0
DWIDTH 6 0
BBX 5 7 0 0
BITMAP
88
88
50
20
50
88
88
ENDCHAR
STARTCHAR u03A8
ENCODING 936
SWIDTH 800 0
DWIDTH 8 0
BBX 7 7 0 0
BITMAP
92
92
92
92
7C
10
10
ENDCHAR
STARTCHAR u03A9
ENCODING 937
SWIDTH 600 0
DWIDTH 6 0
BBX 5 7 0 0
BITMAP
70
88
88
88
88
50
D8
ENDCHAR
STARTCHAR u03AA
ENCODING 938
SWIDTH 400 0
DWIDTH 4 0
BBX 3 9 0 0
BITMAP
A0
00
E0
40
40
40
40
40
E0
ENDCHAR
STARTCHAR u03AB
ENCODING 939
SWIDTH 600 0
DWIDTH 6 0
BBX 5 9 0 0
BITMAP
50
00
88
88
50
50
20
20
20
ENDCHAR
STARTCHAR u03AC
ENCODING 940
SWIDTH 500 0
DWIDTH 5 0
BBX 4 8 0 0
BITMAP
20
40
00
70
90
90
B0
D0
ENDCHAR
STARTCHAR u03AD
ENCODING 941
SWIDTH 500 0
DWIDTH 5 0
BBX 4 8 0 0
BITMAP
20
40
00
70
80
60
80
70
ENDCHAR
STARTCHAR u03AE
ENCODING 942
SWIDTH 500 0
DWIDTH 5 0
BBX 4 10 0 -2
BITMAP
20
40
00
E0
90
90
90
90
10
10
ENDCHAR
STARTCHAR u03AF
ENCODING 943
SWIDTH 400 0
DWIDTH 4 0
BBX 3 8 0 0
BITMAP
20
40
00
40
C0
40
40
20
ENDCHAR
STARTCHAR u03B0
ENCODING 944
SWIDTH 500 0
DWIDTH 5 0
BBX 4 10 0 0
BITMAP
20
40
00
90
00
90
90
90
90
60
ENDCHAR
STARTCHAR u03B1
ENCODING 945
SWIDTH 500 0
DWIDTH 5 0
BBX 4 5 0 0
BITMAP
70
90
90
B0
D0
ENDCHAR
STARTCHAR u03B2
ENCODING 946
SWIDTH 500 0
DWIDTH 5 0
BBX 4 9 0 -2
BITMAP
60
90
90
A0
90
90
E0
80
80
ENDCHAR
STARTCHAR u03B3
ENCODING 947
SWIDTH 600 0
DWIDTH 6 0
BBX 5 7 0 -2
BITMAP
88
48
50
20
20
40
40
ENDCHAR
STARTCHAR u03B4
ENCODING 948
SWIDTH 500 0
DWIDTH 5 0
BBX 4 7 0 0
BITMAP
70
80
40
A0
90
90
60
ENDCHAR
STARTCHAR u03B5
ENCODING 949
SWIDTH 500 0
DWIDTH 5 0
BBX 4 5 0 0
BITMAP
70
80
60
80
70
ENDCHAR
STARTCHAR u03B6
ENCODING 950
SWIDTH 500 0
DWIDTH 5 0
BBX 4 9 0 -2
BITMAP
F0
20
40
80
80
80
60
10
20
ENDCHAR
STARTCHAR u03B7
ENCODING 951
SWIDTH 500 0
DWIDTH 5 0
BBX 4 7 0 -2
BITMAP
E0
90
90
90
90
10
10
ENDCHAR
STARTCHAR u03B8
ENCODING 952
SWIDTH 500 0
DWIDTH 5 0
BBX 4 7 0 0
BITMAP
60
90
90
F0
90
90
60
ENDCHAR
STARTCHAR u03B9
ENCODING 953
SWIDTH 400 0
DWIDTH 4 0
BBX 3 5 0 0
BITMAP
40
C0
40
40
20
ENDCHAR
STARTCHAR u03BA
ENCODING 954
SWIDTH 500 0
DWIDTH 5 0
BBX 4 5 0 0
BITMAP
90
A0
C0
A0
90
ENDCHAR
STARTCHAR u03BB
ENCODING 955
SWIDTH 500 0
DWIDTH 5 0
BBX 4 7 0 0
BITMAP
C0
20
20
20
50
50
90
ENDCHAR
STARTCHAR u03BC
ENCODING 956
SWIDTH 500 0
DWIDTH 5 0
BBX 4 7 0 -2
BITMAP
90
90
90
B0
D0
80
80
ENDCHAR
STARTCHAR u03BD
ENCODING 957
SWIDTH 600 0
DWIDTH 6 0
BBX 5 5 0 0
BITMAP
88
88
50
50
20
ENDCHAR
STARTCHAR u03BE
ENCODING 958
SWIDTH 500 0
DWIDTH 5 0
BBX 4 9 0 -2
BITMAP
70
80
80
60
80
80
60
10
20
ENDCHAR
STARTCHAR u03BF
ENCODING 959
SWIDTH 500 0
DWIDTH 5 0
BBX 4 5 0 0
BITMAP
60
90
90
90
60
ENDCHAR
STARTCHAR u03C0
ENCODING 960
SWIDTH 600 0
DWIDTH 6 0
BBX 5 5 0 0
BITMAP
F8
50
50
50
98
ENDCHAR
STARTCHAR u03C1
ENCODING 961
SWIDTH 500 0
DWIDTH 5 0
BBX 4 7 0 -2
BITMAP
60
90
90
90
E0
80
80
ENDCHAR
STARTCHAR u03C2
ENCODING 962
SWIDTH 500 0
DWIDTH 5 0
BBX 4 7 0 -2
BITMAP
60
90
80
80
60
10
60
ENDCHAR
STARTCHAR u03C3
ENCODING 963
SWIDTH 600 0
DWIDTH 6 0
BBX 5 5 0 0
BITMAP
78
90
90
90
60
ENDCHAR
STARTCHAR u03C4
ENCODING 964
SWIDTH 500 0
DWIDTH 5 0
BBX 4 5 0 0
BITMAP
F0
40
40
40
30
ENDCHAR
STARTCHAR u03C5
ENCODING 965
SWIDTH 500 0
DWIDTH 5 0
BBX 4 5 0 0
BITMAP
90
90
90
90
60
ENDCHAR
STARTCHAR u03C6
ENCODING 966
SWIDTH 600 0
DWIDTH 6 0
BBX 5 7 0 -2
BITMAP
90
A8
A8
A8
70
20
20
ENDCHAR
STARTCHAR u03C7
ENCODING 967
SWIDTH 600 0
DWIDTH 6 0
BBX 5 7 0 -2
BITMAP
88
48
50
20
50
90
88
ENDCHAR
STARTCHAR u03C8
ENCODING 968
SWIDTH 600 0
DWIDTH 6 0
BBX 5 7 0 -2
BITMAP
A8
A8
A8
A8
70
20
20
ENDCHAR
STARTCHAR u03C9
ENCODING 969
SWIDTH 600 0
DWIDTH 6 0
BBX 5 5 0 0
BITMAP
50
88
A8
A8
50
ENDCHAR
STARTCHAR u03CA
ENCODING 970
SWIDTH 400 0
DWIDTH 4 0
BBX 3 7 0 0
BITMAP
A0
00
40
C0
40
40
20
ENDCHAR
STARTCHAR u03CB
ENCODING 971
SWIDTH 500 0
DWIDTH 5 0
BBX 4 7 0 0
BITMAP
90
00
90
90
90
90
60
ENDCHAR
STARTCHAR u03CC
ENCODING 972
SWIDTH 500 0
DWIDTH 5 0
BBX 4 8 0 0
BITMAP
20
40
00
60
90
90
90
60
ENDCHAR
STARTCHAR u03CD
ENCODING 973
SWIDTH 500 0
DWIDTH 5 0
BBX 4 8 0 0
BITMAP
20
40
00
90
90
90
90
60
ENDCHAR
STARTCHAR u03CE
ENCODING 974
SWIDTH 600 0
DWIDTH 6 0
BBX 5 8 0 0
BITMAP
10
20
00
50
88
A8
A8
50
ENDCHAR
STARTCHAR u03D2
ENCODING 978
SWIDTH 600 0
DWIDTH 6 0
BBX 5 7 0 0
BITMAP
88
50
50
20
20
20
20
ENDCHAR
STARTCHAR u03D3
ENCODING 979
SWIDTH 600 0
DWIDTH 6 0
BBX 5 10 0 0
BITMAP
40
80
00
88
50
50
20
20
20
20
ENDCHAR
STARTCHAR u03D4
ENCODING 980
SWIDTH 600 0
DWIDTH 6 0
BBX 5 9 0 0
BITMAP
50
00
88
50
50
20
20
20
20
ENDCHAR
STARTCHAR u03D5
ENCODING 981
SWIDTH 600 0
DWIDTH 6 0
BBX 5 9 0 -2
BITMAP
20
20
70
A8
A8
A8
70
20
20
ENDCHAR
STARTCHAR u03D6
ENCODING 982
SWIDTH 600 0
DWIDTH 6 0
BBX 5 5 0 0
BITMAP
F8
50
88
A8
50
ENDCHAR
STARTCHAR u03DA
ENCODING 986
SWIDTH 600 0
DWIDTH 6 0
BBX 5 9 0 -2
BITMAP
70
88
88
80
80
40
30
08
30
ENDCHAR
STARTCHAR u03DB
ENCODING 987
SWIDTH 500 0
DWIDTH 5 0
BBX 4 7 0 -2
BITMAP
60
90
80
80
60
10
60
ENDCHAR
STARTCHAR u03F2
ENCODING 1010
SWIDTH 500 0
DWIDTH 5 0
BBX 4 5 0 0
BITMAP
60
90
80
90
60
ENDCHAR
STARTCHAR u03F3
ENCODING 1011
SWIDTH 400 0
DWIDTH 4 0
BBX 3 9 0 -2
BITMAP
20
00
E0
20
20
20
20
20
C0
ENDCHAR
STARTCHAR u03F4
ENCODING 1012
SWIDTH 600 0
DWIDTH 6 0
BBX 5 7 0 0
BITMAP
70
88
88
F8
88
88
70
ENDCHAR
STARTCHAR u03F5
ENCODING 1013
SWIDTH 400 0
DWIDTH 4 0
BBX 3 5 0 0
BITMAP
60
80
E0
80
60
ENDCHAR
STARTCHAR u03F6
ENCODING 1014
SWIDTH 400 0
DWIDTH 4 0
BBX 3 5 0 0
BITMAP
C0
20
E0
20
C0
ENDCHAR
STARTCHAR u03F7
ENCODING 1015
SWIDTH 600 0
DWIDTH 6 0
BBX 5 7 0 0
BITMAP
80
F0
88
88
88
F0
80
ENDCHAR
STARTCHAR u03F8
ENCODING 1016
SWIDTH 500 0
DWIDTH 5 0
BBX 4 9 0 -2
BITMAP
80
80
E0
90
90
90
E0
80
80
ENDCHAR
STARTCHAR u03F9
ENCODING 1017
SWIDTH 600 0
DWIDTH 6 0
BBX 5 7 0 0
BITMAP
70
88
80
80
80
88
70
ENDCHAR
STARTCHAR u03FA
ENCODING 1018
SWIDTH 800 0
DWIDTH 8 0
BBX 7 7 0 0
BITMAP
82
C6
C6
AA
AA
92
92
ENDCHAR
STARTCHAR u03FB
ENCODING 1019
SWIDTH 600 0
DWIDTH 6 0
BBX 5 7 0 -2
BITMAP
88
D8
D8
A8
A8
80
80
ENDCHAR
STARTCHAR u03FD
ENCODING 1021
SWIDTH 600 0
DWIDTH 6 0
BBX 5 7 0 0
BITMAP
70
88
08
08
08
88
70
ENDCHAR
STARTCHAR u03FE
ENCODING 1022
SWIDTH 600 0
DWIDTH 6 0
BBX 5 7 0 0
BITMAP
70
88
80
A0
80
88
70
ENDCHAR
STARTCHAR u03FF
ENCODING 1023
SWIDTH 600 0
DWIDTH 6 0
BBX 5 7 0 0
BITMAP
70
88
08
28
08
88
70
ENDCHAR
STARTCHAR u0400
ENCODING 1024
SWIDTH 600 0
DWIDTH 6 0
BBX 5 10 0 0
BITMAP
40
20
00
F8
80
80
F0
80
80
F8
ENDCHAR
STARTCHAR u0401
ENCODING 1025
SWIDTH 600 0
DWIDTH 6 0
BBX 5 9 0 0
BITMAP
50
00
F8
80
80
F0
80
80
F8
ENDCHAR
STARTCHAR u0403
ENCODING 1027
SWIDTH 500 0
DWIDTH 5 0
BBX 4 10 0 0
BITMAP
20
40
00
F0
80
80
80
80
80
80
ENDCHAR
STARTCHAR u0404
ENCODING 1028
SWIDTH 600 0
DWIDTH 6 0
BBX 5 7 0 0
BITMAP
70
88
80
E0
80
88
70
ENDCHAR
STARTCHAR u0405
ENCODING 1029
SWIDTH 600 0
DWIDTH 6 0
BBX 5 7 0 0
BITMAP
70
88
80
70
08
88
70
ENDCHAR
STARTCHAR u0406
ENCODING 1030
SWIDTH 400 0
DWIDTH 4 0
BBX 3 7 0 0
BITMAP
E0
40
40
40
40
40
E0
ENDCHAR
STARTCHAR u0407
ENCODING 1031
SWIDTH 400 0
DWIDTH 4 0
BBX 3 9 0 0
BITMAP
A0
00
E0
40
40
40
40
40
E0
ENDCHAR
STARTCHAR u0408
ENCODING 1032
SWIDTH 500 0
DWIDTH 5 0
BBX 4 7 0 0
BITMAP
10
10
10
10
90
90
60
ENDCHAR
STARTCHAR u040C
ENCODING 1036
SWIDTH 600 0
DWIDTH 6 0
BBX 5 10 0 0
BITMAP
10
20
00
88
90
A0
C0
A0
90
88
ENDCHAR
STARTCHAR u040D
ENCODING 1037
SWIDTH 600 0
DWIDTH 6 0
BBX 5 10 0 0
BITMAP
40
20
00
88
98
98
A8
C8
C8
88
ENDCHAR
STARTCHAR u040E
ENCODING 1038
SWIDTH 600 0
DWIDTH 6 0
BBX 5 10 0 0
BITMAP
88
70
00
88
88
50
50
20
20
C0
ENDCHAR
STARTCHAR u040F
ENCODING 1039
SWIDTH 600 0
DWIDTH 6 0
BBX 5 9 0 -2
BITMAP
88
88
88
88
88
88
F8
20
20
ENDCHAR
STARTCHAR u0410
ENCODING 1040
SWIDTH 600 0
DWIDTH 6 0
BBX 5 7 0 0
BITMAP
20
20
50
50
70
88
88
ENDCHAR
STARTCHAR u0411
ENCODING 1041
SWIDTH 600 0
DWIDTH 6 0
BBX 5 7 0 0
BITMAP
F0
80
80
F0
88
88
F0
ENDCHAR
STARTCHAR u0412
ENCODING 1042
SWIDTH 600 0
DWIDTH 6 0
BBX 5 7 0 0
BITMAP
F0
88
88
F0
88
88
F0
ENDCHAR
STARTCHAR u0413
ENCODING 1043
SWIDTH 500 0
DWIDTH 5 0
BBX 4 7 0 0
BITMAP
F0
80
80
80
80
80
80
ENDCHAR
STARTCHAR u0414
ENCODING 1044
SWIDTH 700 0
DWIDTH 7 0
BBX 6 9 0 -2
BITMAP
78
48
48
48
88
88
FC
84
84
ENDCHAR
STARTCHAR u0415
ENCODING 1045
SWIDTH 600 0
DWIDTH 6 0
BBX 5 7 0 0
BITMAP
F8
80
80
F0
80
80
F8
ENDCHAR
STARTCHAR u0416
ENCODING 1046
SWIDTH 800 0
DWIDTH 8 0
BBX 7 7 0 0
BITMAP
92
54
54
38
54
92
92
ENDCHAR
STARTCHAR u0417
ENCODING 1047
SWIDTH 600 0
DWIDTH 6 0
BBX 5 7 0 0
BITMAP
70
88
08
30
08
88
70
ENDCHAR
STARTCHAR u0418
ENCODING 1048
SWIDTH 600 0
DWIDTH 6 0
BBX 5 7 0 0
BITMAP
88
98
98
A8
C8
C8
88
ENDCHAR
STARTCHAR u0419
ENCODING 1049
SWIDTH 600 0
DWIDTH 6 0
BBX 5 10 0 0
BITMAP
88
70
00
88
98
98
A8
C8
C8
88
ENDCHAR
STARTCHAR u041A
ENCODING 1050
SWIDTH 600 0
DWIDTH 6 0
BBX 5 7 0 0
BITMAP
88
90
A0
C0
A0
90
88
ENDCHAR
STARTCHAR u041B
ENCODING 1051
SWIDTH 600 0
DWIDTH 6 0
BBX 5 7 0 0
BITMAP
78
48
48
48
48
48
88
ENDCHAR
STARTCHAR u041C
ENCODING 1052
SWIDTH 800 0
DWIDTH 8 0
BBX 7 7 0 0
BITMAP
82
C6
C6
AA
AA
92
92
ENDCHAR
STARTCHAR u041D
ENCODING 1053
SWIDTH 600 0
DWIDTH 6 0
BBX 5 7 0 0
BITMAP
88
88
88
F8
88
88
88
ENDCHAR
STARTCHAR u041E
ENCODING 1054
SWIDTH 600 0
DWIDTH 6 0
BBX 5 7 0 0
BITMAP
70
88
88
88
88
88
70
ENDCHAR
STARTCHAR u041F
ENCODING 1055
SWIDTH 600 0
DWIDTH 6 0
BBX 5 7 0 0
BITMAP
F8
88
88
88
88
88
88
ENDCHAR
STARTCHAR u0420
ENCODING 1056
SWIDTH 600 0
DWIDTH 6 0
BBX 5 7 0 0
BITMAP
F0
88
88
F0
80
80
80
ENDCHAR
STARTCHAR u0421
ENCODING 1057
SWIDTH 600 0
DWIDTH 6 0
BBX 5 7 0 0
BITMAP
70
88
80
80
80
88
70
ENDCHAR
STARTCHAR u0422
ENCODING 1058
SWIDTH 600 0
DWIDTH 6 0
BBX 5 7 0 0
BITMAP
F8
20
20
20
20
20
20
ENDCHAR
STARTCHAR u0423
ENCODING 1059
SWIDTH 600 0
DWIDTH 6 0
BBX 5 7 0 0
BITMAP
88
88
50
50
20
20
C0
ENDCHAR
STARTCHAR u0424
ENCODING 1060
SWIDTH 800 0
DWIDTH 8 0
BBX 7 7 0 0
BITMAP
10
7C
92
92
92
7C
10
ENDCHAR
STARTCHAR u0425
ENCODING 1061
SWIDTH 600 0
DWIDTH 6 0
BBX 5 7 0 0
BITMAP
88
88
50
20
50
88
88
ENDCHAR
STARTCHAR u0426
ENCODING 1062
SWIDTH 700 0
DWIDTH 7 0
BBX 6 9 0 -2
BITMAP
88
88
88
88
88
88
FC
04
04
ENDCHAR
STARTCHAR u0427
ENCODING 1063
SWIDTH 600 0
DWIDTH 6 0
BBX 5 7 0 0
BITMAP
88
88
98
68
08
08
08
ENDCHAR
STARTCHAR u0428
ENCODING 1064
SWIDTH 800 0
DWIDTH 8 0
BBX 7 7 0 0
BITMAP
92
92
92
92
92
92
FE
ENDCHAR
STARTCHAR u0429
ENCODING 1065
SWIDTH 900 0
DWIDTH 9 0
BBX 8 9 0 -2
BITMAP
92
92
92
92
92
92
FF
01
01
ENDCHAR
STARTCHAR u042A
ENCODING 1066
SWIDTH 700 0
DWIDTH 7 0
BBX 6 7 0 0
BITMAP
C0
40
40
78
44
44
78
ENDCHAR
STARTCHAR u042B
ENCODING 1067
SWIDTH 800 0
DWIDTH 8 0
BBX 7 7 0 0
BITMAP
82
82
82
F2
8A
8A
F2
ENDCHAR
STARTCHAR u042C
ENCODING 1068
SWIDTH 600 0
DWIDTH 6 0
BBX 5 7 0 0
BITMAP
80
80
80
F0
88
88
F0
ENDCHAR
STARTCHAR u042D
ENCODING 1069
SWIDTH 600 0
DWIDTH 6 0
BBX 5 7 0 0
BITMAP
70
88
08
38
08
88
70
ENDCHAR
STARTCHAR u042E
ENCODING 1070
SWIDTH 800 0
DWIDTH 8 0
BBX 7 7 0 0
BITMAP
9C
A2
A2
E2
A2
A2
9C
ENDCHAR
STARTCHAR u042F
ENCODING 1071
SWIDTH 600 0
DWIDTH 6 0
BBX 5 7 0 0
BITMAP
78
88
88
78
48
88
88
ENDCHAR
STARTCHAR u0430
ENCODING 1072
SWIDTH 500 0
DWIDTH 5 0
BBX 4 5 0 0
BITMAP
60
10
70
90
70
ENDCHAR
STARTCHAR u0431
ENCODING 1073
SWIDTH 500 0
DWIDTH 5 0
BBX 4 7 0 0
BITMAP
10
60
80
E0
90
90
60
ENDCHAR
STARTCHAR u0432
ENCODING 1074
SWIDTH 500 0
DWIDTH 5 0
BBX 4 5 0 0
BITMAP
E0
90
E0
90
E0
ENDCHAR
STARTCHAR u0433
ENCODING 1075
SWIDTH 400 0
DWIDTH 4 0
BBX 3 5 0 0
BITMAP
E0
80
80
80
80
ENDCHAR
STARTCHAR u0434
ENCODING 1076
SWIDTH 600 0
DWIDTH 6 0
BBX 5 7 0 -2
BITMAP
70
50
50
90
F8
88
88
ENDCHAR
STARTCHAR u0435
ENCODING 1077
SWIDTH 500 0
DWIDTH 5 0
BBX 4 5 0 0
BITMAP
60
90
F0
80
60
ENDCHAR
STARTCHAR u0436
ENCODING 1078
SWIDTH 600 0
DWIDTH 6 0
BBX 5 5 0 0
BITMAP
A8
A8
70
A8
A8
ENDCHAR
STARTCHAR u0437
ENCODING 1079
SWIDTH 500 0
DWIDTH 5 0
BBX 4 5 0 0
BITMAP
E0
10
60
10
E0
ENDCHAR
STARTCHAR u0438
ENCODING 1080
SWIDTH 500 0
DWIDTH 5 0
BBX 4 5 0 0
BITMAP
90
B0
D0
90
90
ENDCHAR
STARTCHAR u0439
ENCODING 1081
SWIDTH 500 0
DWIDTH 5 0
BBX 4 8 0 0
BITMAP
90
60
00
90
B0
D0
90
90
ENDCHAR
STARTCHAR u043A
ENCODING 1082
SWIDTH 500 0
DWIDTH 5 0
BBX 4 5 0 0
BITMAP
90
A0
C0
A0
90
ENDCHAR
STARTCHAR u043B
ENCODING 1083
SWIDTH 600 0
DWIDTH 6 0
BBX 5 5 0 0
BITMAP
78
48
48
48
88
ENDCHAR
STARTCHAR u043C
ENCODING 1084
SWIDTH 600 0
DWIDTH 6 0
BBX 5 5 0 0
BITMAP
88
D8
D8
A8
A8
ENDCHAR
STARTCHAR u043D
ENCODING 1085
SWIDTH 500 0
DWIDTH 5 0
BBX 4 5 0 0
BITMAP
90
90
F0
90
90
ENDCHAR
STARTCHAR u043E
ENCODING 1086
SWIDTH 500 0
DWIDTH 5 0
BBX 4 5 0 0
BITMAP
60
90
90
90
60
ENDCHAR
STARTCHAR u043F
ENCODING 1087
SWIDTH 500 0
DWIDTH 5 0
BBX 4 5 0 0
BITMAP
F0
90
90
90
90
ENDCHAR
STARTCHAR u0440
ENCODING 1088
SWIDTH 500 0
DWIDTH 5 0
BBX 4 7 0 -2
BITMAP
E0
90
90
90
E0
80
80
ENDCHAR
STARTCHAR u0441
ENCODING 1089
SWIDTH 500 0
DWIDTH 5 0
BBX 4 5 0 0
BITMAP
60
90
80
90
60
ENDCHAR
STARTCHAR u0442
ENCODING 1090
SWIDTH 600 0
DWIDTH 6 0
BBX 5 5 0 0
BITMAP
F8
20
20
20
20
ENDCHAR
STARTCHAR u0443
ENCODING 1091
SWIDTH 600 0
DWIDTH 6 0
BBX 5 7 0 -2
BITMAP
88
88
50
50
20
20
C0
ENDCHAR
STARTCHAR u0444
ENCODING 1092
SWIDTH 600 0
DWIDTH 6 0
BBX 5 9 0 -2
BITMAP
20
20
70
A8
A8
A8
70
20
20
ENDCHAR
STARTCHAR u0445
ENCODING 1093
SWIDTH 600 0
DWIDTH 6 0
BBX 5 5 0 0
BITMAP
88
50
20
50
88
ENDCHAR
STARTCHAR u0446
ENCODING 1094
SWIDTH 600 0
DWIDTH 6 0
BBX 5 7 0 -2
BITMAP
90
90
90
90
F8
08
08
ENDCHAR
STARTCHAR u0447
ENCODING 1095
SWIDTH 500 0
DWIDTH 5 0
BBX 4 5 0 0
BITMAP
90
90
70
10
10
ENDCHAR
STARTCHAR u0448
ENCODING 1096
SWIDTH 600 0
DWIDTH 6 0
BBX 5 5 0 0
BITMAP
A8
A8
A8
A8
F8
ENDCHAR
STARTCHAR u0449
ENCODING 1097
SWIDTH 700 0
DWIDTH 7 0
BBX 6 7 0 -2
BITMAP
A8
A8
A8
A8
FC
04
04
ENDCHAR
STARTCHAR u044A
ENCODING 1098
SWIDTH 600 0
DWIDTH 6 0
BBX 5 5 0 0
BITMAP
C0
40
70
48
70
ENDCHAR
STARTCHAR u044B
ENCODING 1099
SWIDTH 700 0
DWIDTH 7 0
BBX 6 5 0 0
BITMAP
84
84
E4
94
E4
ENDCHAR
STARTCHAR u044C
ENCODING 1100
SWIDTH 500 0
DWIDTH 5 0
BBX 4 5 0 0
BITMAP
80
80
E0
90
E0
ENDCHAR
STARTCHAR u044D
ENCODING 1101
SWIDTH 500 0
DWIDTH 5 0
BBX 4 5 0 0
BITMAP
E0
10
70
10
E0
ENDCHAR
STARTCHAR u044E
ENCODING 1102
SWIDTH 700 0
DWIDTH 7 0
BBX 6 5 0 0
BITMAP
98
A4
E4
A4
98
ENDCHAR
STARTCHAR u044F
ENCODING 1103
SWIDTH 500 0
DWIDTH 5 0
BBX 4 5 0 0
BITMAP
70
90
70
50
90
ENDCHAR
STARTCHAR u0450
ENCODING 1104
SWIDTH 500 0
DWIDTH 5 0
BBX 4 8 0 0
BITMAP
40
20
00
60
90
F0
80
60
ENDCHAR
STARTCHAR u0451
ENCODING 1105
SWIDTH 500 0
DWIDTH 5 0
BBX 4 7 0 0
BITMAP
50
00
60
90
F0
80
60
ENDCHAR
STARTCHAR u0453
ENCODING 1107
SWIDTH 400 0
DWIDTH 4 0
BBX 3 8 0 0
BITMAP
20
40
00
E0
80
80
80
80
ENDCHAR
STARTCHAR u0454
ENCODING 1108
SWIDTH 500 0
DWIDTH 5 0
BBX 4 5 0 0
BITMAP
70
80
E0
80
70
ENDCHAR
STARTCHAR u0455
ENCODING 1109
SWIDTH 500 0
DWIDTH 5 0
BBX 4 5 0 0
BITMAP
70
80
60
10
E0
ENDCHAR
STARTCHAR u0456
ENCODING 1110
SWIDTH 400 0
DWIDTH 4 0
BBX 3 7 0 0
BITMAP
40
00
C0
40
40
40
E0
ENDCHAR
STARTCHAR u0457
ENCODING 1111
SWIDTH 400 0
DWIDTH 4 0
BBX 3 7 0 0
BITMAP
A0
00
C0
40
40
40
E0
ENDCHAR
STARTCHAR u0458
ENCODING 1112
SWIDTH 400 0
DWIDTH 4 0
BBX 3 9 0 -2
BITMAP
20
00
E0
20
20
20
20
20
C0
ENDCHAR
STARTCHAR u045B
ENCODING 1115
SWIDTH 600 0
DWIDTH 6 0
BBX 5 7 0 0
BITMAP
40
F0
40
70
48
48
48
ENDCHAR
STARTCHAR u045C
ENCODING 1116
SWIDTH 500 0
DWIDTH 5 0
BBX 4 8 0 0
BITMAP
20
40
00
90
A0
C0
A0
90
ENDCHAR
STARTCHAR u045D
ENCODING 1117
SWIDTH 500 0
DWIDTH 5 0
BBX 4 8 0 0
BITMAP
40
20
00
90
B0
D0
90
90
ENDCHAR
STARTCHAR u045E
ENCODING 1118
SWIDTH 600 0
DWIDTH 6 0
BBX 5 10 0 -2
BITMAP
48
30
00
88
88
50
50
20
20
C0
ENDCHAR
STARTCHAR u045F
ENCODING 1119
SWIDTH 500 0
DWIDTH 5 0
BBX 4 7 0 -2
BITMAP
90
90
90
90
F0
20
20
ENDCHAR
STARTCHAR u0464
ENCODING 1124
SWIDTH 800 0
DWIDTH 8 0
BBX 7 7 0 0
BITMAP
9C
A2
A0
F8
A0
A2
9C
ENDCHAR
STARTCHAR u0465
ENCODING 1125
SWIDTH 700 0
DWIDTH 7 0
BBX 6 5 0 0
BITMAP
98
A4
F0
A4
98
ENDCHAR
STARTCHAR u0470
ENCODING 1136
SWIDTH 800 0
DWIDTH 8 0
BBX 7 7 0 0
BITMAP
92
92
92
92
7C
10
10
ENDCHAR
STARTCHAR u0471
ENCODING 1137
SWIDTH 600 0
DWIDTH 6 0
BBX 5 7 0 -2
BITMAP
A8
A8
A8
A8
70
20
20
ENDCHAR
STARTCHAR u0472
ENCODING 1138
SWIDTH 600 0
DWIDTH 6 0
BBX 5 7 0 0
BITMAP
70
88
88
F8
88
88
70
ENDCHAR
STARTCHAR u0473
ENCODING 1139
SWIDTH 500 0
DWIDTH 5 0
BBX 4 5 0 0
BITMAP
60
90
F0
90
60
ENDCHAR
STARTCHAR u0478
ENCODING 1144
SWIDTH 1200 0
DWIDTH 12 0
BBX 11 9 0 -2
BITMAP
7000
8800
8A20
8A20
8940
8940
7080
0080
0300
ENDCHAR
STARTCHAR u0479
ENCODING 1145
SWIDTH 1100 0
DWIDTH 11 0
BBX 10 7 0 -2
BITMAP
6440
9440
9280
9280
6100
0100
0600
ENDCHAR
STARTCHAR u0490
ENCODING 1168
SWIDTH 500 0
DWIDTH 5 0
BBX 4 9 0 0
BITMAP
10
10
F0
80
80
80
80
80
80
ENDCHAR
STARTCHAR u0491
ENCODING 1169
SWIDTH 400 0
DWIDTH 4 0
BBX 3 7 0 0
BITMAP
20
20
E0
80
80
80
80
ENDCHAR
STARTCHAR u049E
ENCODING 1182
SWIDTH 700 0
DWIDTH 7 0
BBX 6 7 0 0
BITMAP
44
E8
50
60
50
48
44
ENDCHAR
STARTCHAR u049F
ENCODING 1183
SWIDTH 600 0
DWIDTH 6 0
BBX 5 7 0 0
BITMAP
40
E0
48
50
60
50
48
ENDCHAR
STARTCHAR u04AE
ENCODING 1198
SWIDTH 600 0
DWIDTH 6 0
BBX 5 7 0 0
BITMAP
88
88
50
50
20
20
20
ENDCHAR
STARTCHAR u04AF
ENCODING 1199
SWIDTH 600 0
DWIDTH 6 0
BBX 5 7 0 -2
BITMAP
88
88
50
50
20
20
20
ENDCHAR
STARTCHAR u04B0
ENCODING 1200
SWIDTH 600 0
DWIDTH 6 0
BBX 5 7 0 0
BITMAP
88
88
50
50
F8
20
20
ENDCHAR
STARTCHAR u04B1
ENCODING 1201
SWIDTH 600 0
DWIDTH 6 0
BBX 5 7 0 -2
BITMAP
88
88
50
50
F8
20
20
ENDCHAR
STARTCHAR u04BA
ENCODING 1210
SWIDTH 600 0
DWIDTH 6 0
BBX 5 7 0 0
BITMAP
80
80
80
B0
C8
88
88
ENDCHAR
STARTCHAR u04BB
ENCODING 1211
SWIDTH 500 0
DWIDTH 5 0
BBX 4 7 0 0
BITMAP
80
80
E0
90
90
90
90
ENDCHAR
STARTCHAR u04C0
ENCODING 1216
SWIDTH 400 0
DWIDTH 4 0
BBX 3 7 0 0
BITMAP
E0
40
40
40
40
40
E0
ENDCHAR
STARTCHAR u04C1
ENCODING 1217
SWIDTH 800 0
DWIDTH 8 0
BBX 7 10 0 0
BITMAP
44
38
00
92
54
54
38
54
92
92
ENDCHAR
STARTCHAR u04C2
ENCODING 1218
SWIDTH 600 0
DWIDTH 6 0
BBX 5 8 0 0
BITMAP
88
70
00
A8
A8
70
A8
A8
ENDCHAR
STARTCHAR u04C7
ENCODING 1223
SWIDTH 600 0
DWIDTH 6 0
BBX 5 9 0 -2
BITMAP
88
88
88
F8
88
88
88
08
30
ENDCHAR
STARTCHAR u04C8
ENCODING 1224
SWIDTH 500 0
DWIDTH 5 0
BBX 4 7 0 -2
BITMAP
90
90
F0
90
90
10
60
ENDCHAR
STARTCHAR u04CF
ENCODING 1231
SWIDTH 400 0
DWIDTH 4 0
BBX 3 7 0 0
BITMAP
E0
40
40
40
40
40
E0
ENDCHAR
STARTCHAR u04D0
ENCODING 1232
SWIDTH 600 0
DWIDTH 6 0
BBX 5 10 0 0
BITMAP
88
70
00
20
20
50
50
70
88
88
ENDCHAR
STARTCHAR u04D1
ENCODING 1233
SWIDTH 500 0
DWIDTH 5 0
BBX 4 8 0 0
BITMAP
90
60
00
60
10
70
90
70
ENDCHAR
STARTCHAR u04D2
ENCODING 1234
SWIDTH 600 0
DWIDTH 6 0
BBX 5 9 0 0
BITMAP
50
00
20
20
50
50
70
88
88
ENDCHAR
STARTCHAR u04D3
ENCODING 1235
SWIDTH 500 0
DWIDTH 5 0
BBX 4 7 0 0
BITMAP
50
00
60
10
70
90
70
ENDCHAR
STARTCHAR u04D4
ENCODING 1236
SWIDTH 800 0
DWIDTH 8 0
BBX 7 7 0 0
BITMAP
3E
30
50
5C
70
90
9E
ENDCHAR
STARTCHAR u04D5
ENCODING 1237
SWIDTH 800 0
DWIDTH 8 0
BBX 7 5 0 0
BITMAP
6C
12
7E
90
6C
ENDCHAR
STARTCHAR u04D6
ENCODING 1238
SWIDTH 600 0
DWIDTH 6 0
BBX 5 10 0 0
BITMAP
88
70
00
F8
80
80
F0
80
80
F8
ENDCHAR
STARTCHAR u04D7
ENCODING 1239
SWIDTH 500 0
DWIDTH 5 0
BBX 4 8 0 0
BITMAP
90
60
00
60
90
F0
80
60
ENDCHAR
STARTCHAR u04D8
ENCODING 1240
SWIDTH 600 0
DWIDTH 6 0
BBX 5 7 0 0
BITMAP
70
88
08
F8
88
88
70
ENDCHAR
STARTCHAR u04D9
ENCODING 1241
SWIDTH 500 0
DWIDTH 5 0
BBX 4 5 0 0
BITMAP
60
10
F0
90
60
ENDCHAR
STARTCHAR u04DA
ENCODING 1242
SWIDTH 600 0
DWIDTH 6 0
BBX 5 9 0 0
BITMAP
50
00
70
88
08
F8
88
88
70
ENDCHAR
STARTCHAR u04DB
ENCODING 1243
SWIDTH 500 0
DWIDTH 5 0
BBX 4 7 0 0
BITMAP
50
00
60
10
F0
90
60
ENDCHAR
STARTCHAR u04DC
ENCODING 1244
SWIDTH 800 0
DWIDTH 8 0
BBX 7 9 0 0
BITMAP
28
00
92
54
54
38
54
92
92
ENDCHAR
STARTCHAR u04DD
ENCODING 1245
SWIDTH 600 0
DWIDTH 6 0
BBX 5 7 0 0
BITMAP
50
00
A8
A8
70
A8
A8
ENDCHAR
STARTCHAR u04DE
ENCODING 1246
SWIDTH 600 0
DWIDTH 6 0
BBX 5 9 0 0
BITMAP
50
00
70
88
08
30
08
88
70
ENDCHAR
STARTCHAR u04DF
ENCODING 1247
SWIDTH 500 0
DWIDTH 5 0
BBX 4 7 0 0
BITMAP
50
00
E0
10
60
10
E0
ENDCHAR
STARTCHAR u04E2
ENCODING 1250
SWIDTH 600 0
DWIDTH 6 0
BBX 5 9 0 0
BITMAP
70
00
88
98
98
A8
C8
C8
88
ENDCHAR
STARTCHAR u04E3
ENCODING 1251
SWIDTH 500 0
DWIDTH 5 0
BBX 4 7 0 0
BITMAP
70
00
90
B0
D0
90
90
ENDCHAR
STARTCHAR u04E4
ENCODING 1252
SWIDTH 600 0
DWIDTH 6 0
BBX 5 9 0 0
BITMAP
50
00
88
98
98
A8
C8
C8
88
ENDCHAR
STARTCHAR u04E5
ENCODING 1253
SWIDTH 500 0
DWIDTH 5 0
BBX 4 7 0 0
BITMAP
50
00
90
B0
D0
90
90
ENDCHAR
STARTCHAR u04E6
ENCODING 1254
SWIDTH 600 0
DWIDTH 6 0
BBX 5 9 0 0
BITMAP
50
00
70
88
88
88
88
88
70
ENDCHAR
STARTCHAR u04E7
ENCODING 1255
SWIDTH 500 0
DWIDTH 5 0
BBX 4 7 0 0
BITMAP
50
00
60
90
90
90
60
ENDCHAR
STARTCHAR u04E8
ENCODING 1256
SWIDTH 600 0
DWIDTH 6 0
BBX 5 7 0 0
BITMAP
70
88
88
F8
88
88
70
ENDCHAR
STARTCHAR u04E9
ENCODING 1257
SWIDTH 500 0
DWIDTH 5 0
BBX 4 5 0 0
BITMAP
60
90
F0
90
60
ENDCHAR
STARTCHAR u04EA
ENCODING 1258
SWIDTH 600 0
DWIDTH 6 0
BBX 5 9 0 0
BITMAP
50
00
70
88
88
F8
88
88
70
ENDCHAR
STARTCHAR u04EB
ENCODING 1259
SWIDTH 500 0
DWIDTH 5 0
BBX 4 7 0 0
BITMAP
50
00
60
90
F0
90
60
ENDCHAR
STARTCHAR u04EC
ENCODING 1260
SWIDTH 600 0
DWIDTH 6 0
BBX 5 9 0 0
BITMAP
50
00
70
88
08
38
08
88
70
ENDCHAR
STARTCHAR u04ED
ENCODING 1261
SWIDTH 500 0
DWIDTH 5 0
BBX 4 7 0 0
BITMAP
50
00
E0
10
70
10
E0
ENDCHAR
STARTCHAR u04EE
ENCODING 1262
SWIDTH 600 0
DWIDTH 6 0
BBX 5 9 0 0
BITMAP
70
00
88
88
50
50
20
20
C0
ENDCHAR
STARTCHAR u04EF
ENCODING 1263
SWIDTH 600 0
DWIDTH 6 0
BBX 5 9 0 -2
BITMAP
70
00
88
88
50
50
20
20
C0
ENDCHAR
STARTCHAR u04F0
ENCODING 1264
SWIDTH 600 0
DWIDTH 6 0
BBX 5 9 0 0
BITMAP
50
00
88
88
50
50
20
20
C0
ENDCHAR
STARTCHAR u04F1
ENCODING 1265
SWIDTH 600 0
DWIDTH 6 0
BBX 5 9 0 -2
BITMAP
50
00
88
88
50
50
20
20
C0
ENDCHAR
STARTCHAR u04F2
ENCODING 1266
SWIDTH 600 0
DWIDTH 6 0
BBX 5 10 0 0
BITMAP
28
50
00
88
88
50
50
20
20
C0
ENDCHAR
STARTCHAR u04F3
ENCODING 1267
SWIDTH 600 0
DWIDTH 6 0
BBX 5 10 0 -2
BITMAP
28
50
00
88
88
50
50
20
20
C0
ENDCHAR
STARTCHAR u04F4
ENCODING 1268
SWIDTH 600 0
DWIDTH 6 0
BBX 5 9 0 0
BITMAP
50
00
88
88
98
68
08
08
08
ENDCHAR
STARTCHAR u04F5
ENCODING 1269
SWIDTH 500 0
DWIDTH 5 0
BBX 4 7 0 0
BITMAP
50
00
90
90
70
10
10
ENDCHAR
STARTCHAR u04F6
ENCODING 1270
SWIDTH 500 0
DWIDTH 5 0
BBX 4 9 0 -2
BITMAP
F0
80
80
80
80
80
C0
40
40
ENDCHAR
STARTCHAR u04F7
ENCODING 1271
SWIDTH 400 0
DWIDTH 4 0
BBX 3 7 0 -2
BITMAP
E0
80
80
80
C0
40
40
ENDCHAR
STARTCHAR u04F8
ENCODING 1272
SWIDTH 800 0
DWIDTH 8 0
BBX 7 9 0 0
BITMAP
28
00
82
82
82
F2
8A
8A
F2
ENDCHAR
STARTCHAR u04F9
ENCODING 1273
SWIDTH 700 0
DWIDTH 7 0
BBX 6 7 0 0
BITMAP
28
00
84
84
E4
94
E4
ENDCHAR
ENDFONT
